<svg xmlns="http://www.w3.org/2000/svg" viewBox="0 0 120 140" width="120" height="140" role="img"><title>くま わかもの</title><g transform="translate(6.0,21.0) scale(0.9)"><ellipse cx="60" cy="64" rx="50" ry="46" fill="#a69589"/><circle cx="28" cy="30" r="18.6" fill="#a69589"/><circle cx="92" cy="30" r="18.6" fill="#a69589"/><circle cx="28" cy="30" r="9.3" fill="#d2a96d"/><circle cx="92" cy="30" r="9.3" fill="#d2a96d"/><ellipse cx="60" cy="60.0" rx="36.5" ry="23.0" fill="#6c5446"/><ellipse cx="44" cy="60.0" rx="9.2" ry="11.3" fill="#f5f2ef"/><ellipse cx="76" cy="60.0" rx="9.2" ry="11.3" fill="#f5f2ef"/><circle cx="45" cy="62.0" r="5.4" fill="#3f2d20"/><circle cx="77" cy="62.0" r="5.4" fill="#3f2d20"/><ellipse cx="60" cy="85" rx="20.2" ry="15.0" fill="#efe9e2"/><ellipse cx="60" cy="77" rx="6.2" ry="4.3" fill="#3f2d20"/><path d="M60 82 L60 88" stroke="#3f2d20" stroke-width="2" fill="none" stroke-linecap="round"/><path d="M49 91 Q60 98 71 91" stroke="#3f2d20" stroke-width="2" fill="none" stroke-linecap="round"/><clipPath id="shbear2"><ellipse cx="60" cy="64" rx="50" ry="46"/></clipPath><polygon points="74,2 124,2 124,128 12,128" fill="#000" opacity="0.10" clip-path="url(#shbear2)"/></g></svg>