<svg xmlns="http://www.w3.org/2000/svg" viewBox="0 0 120 140" width="120" height="140" role="img"><title>くま おとな</title><g transform="translate(0.0,10.0) scale(1.0)"><ellipse cx="60" cy="64" rx="50" ry="46" fill="#9d8a7d"/><circle cx="28" cy="30" r="20.0" fill="#9d8a7d"/><circle cx="92" cy="30" r="20.0" fill="#9d8a7d"/><circle cx="28" cy="30" r="10.0" fill="#cda05f"/><circle cx="92" cy="30" r="10.0" fill="#cda05f"/><ellipse cx="60" cy="55.0" rx="38.0" ry="24.0" fill="#5d4334"/><ellipse cx="44" cy="55.0" rx="8.5" ry="10.5" fill="#f5f2ef"/><ellipse cx="76" cy="55.0" rx="8.5" ry="10.5" fill="#f5f2ef"/><circle cx="45" cy="57.0" r="5.0" fill="#3f2d20"/><circle cx="77" cy="57.0" r="5.0" fill="#3f2d20"/><ellipse cx="60" cy="85" rx="23.0" ry="17.0" fill="#efe9e2"/><ellipse cx="60" cy="77" rx="6.5" ry="4.5" fill="#3f2d20"/><path d="M60 82 L60 88" stroke="#3f2d20" stroke-width="2" fill="none" stroke-linecap="round"/><path d="M49 91 Q60 98 71 91" stroke="#3f2d20" stroke-width="2" fill="none" stroke-linecap="round"/><clipPath id="shbear3"><ellipse cx="60" cy="64" rx="50" ry="46"/></clipPath><polygon points="74,2 124,2 124,128 12,128" fill="#000" opacity="0.10" clip-path="url(#shbear3)"/></g></svg>