<svg xmlns="http://www.w3.org/2000/svg" viewBox="0 0 120 140" width="120" height="140" role="img"><title>くま はかせ ★</title><g transform="translate(0.0,10.0) scale(1.0)"><ellipse cx="60" cy="64" rx="50" ry="46" fill="#9d8a7d"/><circle cx="28" cy="30" r="20.0" fill="#9d8a7d"/><circle cx="92" cy="30" r="20.0" fill="#9d8a7d"/><circle cx="28" cy="30" r="10.0" fill="#cda05f"/><circle cx="92" cy="30" r="10.0" fill="#cda05f"/><ellipse cx="60" cy="55.0" rx="38.0" ry="24.0" fill="#5d4334"/><ellipse cx="44" cy="55.0" rx="8.5" ry="10.5" fill="#f5f2ef"/><ellipse cx="76" cy="55.0" rx="8.5" ry="10.5" fill="#f5f2ef"/><circle cx="45" cy="57.0" r="5.0" fill="#3f2d20"/><circle cx="77" cy="57.0" r="5.0" fill="#3f2d20"/><ellipse cx="60" cy="85" rx="23.0" ry="17.0" fill="#efe9e2"/><ellipse cx="60" cy="77" rx="6.5" ry="4.5" fill="#3f2d20"/><path d="M60 82 L60 88" stroke="#3f2d20" stroke-width="2" fill="none" stroke-linecap="round"/><path d="M49 91 Q60 98 71 91" stroke="#3f2d20" stroke-width="2" fill="none" stroke-linecap="round"/><clipPath id="shbear4"><ellipse cx="60" cy="64" rx="50" ry="46"/></clipPath><polygon points="74,2 124,2 124,128 12,128" fill="#000" opacity="0.10" clip-path="url(#shbear4)"/><circle cx="44" cy="55.0" r="13.0" stroke="#2b2b2b" stroke-width="2.4" fill="none"/><circle cx="76" cy="55.0" r="13.0" stroke="#2b2b2b" stroke-width="2.4" fill="none"/><path d="M57.0 55.0 L63.0 55.0" stroke="#2b2b2b" stroke-width="2.4" fill="none"/><polygon points="60,11 100,27 60,43 20,27" fill="#2b2b2b"/><ellipse cx="60" cy="32" rx="13" ry="6" fill="#2b2b2b"/><circle cx="60" cy="27" r="2.2" fill="#e0a93b"/><path d="M60 27 L86 31 L86 43" stroke="#e0a93b" stroke-width="2" fill="none"/><circle cx="86" cy="45" r="3" fill="#e0a93b"/><polygon points="13,55 15,60 20,62 15,64 13,69 11,64 6,62 11,60" fill="#e0a93b"/><polygon points="108,47 110,52 115,54 110,56 108,61 106,56 101,54 106,52" fill="#e0a93b"/></g></svg>