<svg xmlns="http://www.w3.org/2000/svg" viewBox="0 0 120 140" width="120" height="140" role="img"><title>くま あかちゃん</title><g transform="translate(18.0,43.0) scale(0.7)"><ellipse cx="60" cy="64" rx="50" ry="46" fill="#beb2a9"/><circle cx="28" cy="30" r="14.0" fill="#beb2a9"/><circle cx="92" cy="30" r="14.0" fill="#beb2a9"/><circle cx="28" cy="30" r="7.0" fill="#dec095"/><circle cx="92" cy="30" r="7.0" fill="#dec095"/><ellipse cx="60" cy="71.0" rx="31.2" ry="19.7" fill="#948379"/><ellipse cx="44" cy="71.0" rx="11.4" ry="14.1" fill="#f5f2ef"/><ellipse cx="76" cy="71.0" rx="11.4" ry="14.1" fill="#f5f2ef"/><circle cx="45" cy="73.0" r="6.7" fill="#3f2d20"/><circle cx="77" cy="73.0" r="6.7" fill="#3f2d20"/><circle cx="42" cy="69.0" r="2.7" fill="#fff"/><circle cx="74" cy="69.0" r="2.7" fill="#fff"/><ellipse cx="60" cy="85" rx="13.3" ry="9.9" fill="#efe9e2"/><ellipse cx="60" cy="77" rx="5.2" ry="3.6" fill="#3f2d20"/><path d="M60 82 L60 88" stroke="#3f2d20" stroke-width="2" fill="none" stroke-linecap="round"/><path d="M49 91 Q60 98 71 91" stroke="#3f2d20" stroke-width="2" fill="none" stroke-linecap="round"/><clipPath id="shbear0"><ellipse cx="60" cy="64" rx="50" ry="46"/></clipPath><polygon points="74,2 124,2 124,128 12,128" fill="#000" opacity="0.10" clip-path="url(#shbear0)"/></g></svg>