<svg xmlns="http://www.w3.org/2000/svg" viewBox="0 0 120 140" width="120" height="140" role="img"><title>くま こども</title><g transform="translate(12.0,32.0) scale(0.8)"><ellipse cx="60" cy="64" rx="50" ry="46" fill="#b1a197"/><circle cx="28" cy="30" r="16.6" fill="#b1a197"/><circle cx="92" cy="30" r="16.6" fill="#b1a197"/><circle cx="28" cy="30" r="8.3" fill="#d7b37f"/><circle cx="92" cy="30" r="8.3" fill="#d7b37f"/><ellipse cx="60" cy="65.0" rx="34.2" ry="21.6" fill="#7d695d"/><ellipse cx="44" cy="65.0" rx="10.0" ry="12.4" fill="#f5f2ef"/><ellipse cx="76" cy="65.0" rx="10.0" ry="12.4" fill="#f5f2ef"/><circle cx="45" cy="67.0" r="5.9" fill="#3f2d20"/><circle cx="77" cy="67.0" r="5.9" fill="#3f2d20"/><ellipse cx="60" cy="85" rx="17.5" ry="12.9" fill="#efe9e2"/><ellipse cx="60" cy="77" rx="5.9" ry="4.0" fill="#3f2d20"/><path d="M60 82 L60 88" stroke="#3f2d20" stroke-width="2" fill="none" stroke-linecap="round"/><path d="M49 91 Q60 98 71 91" stroke="#3f2d20" stroke-width="2" fill="none" stroke-linecap="round"/><clipPath id="shbear1"><ellipse cx="60" cy="64" rx="50" ry="46"/></clipPath><polygon points="74,2 124,2 124,128 12,128" fill="#000" opacity="0.10" clip-path="url(#shbear1)"/></g></svg>