<svg xmlns="http://www.w3.org/2000/svg" viewBox="0 0 120 140" width="120" height="140" role="img"><title>ねこ こども</title><g transform="translate(12.0,32.0) scale(0.8)"><ellipse cx="60" cy="64" rx="48" ry="45" fill="#978b80"/><polygon points="20.9,32 30.0,2 39.1,32" fill="#978b80"/><polygon points="80.9,32 90.0,2 99.1,32" fill="#978b80"/><polygon points="24.9,30 30.0,10 35.1,30" fill="#ebcab3"/><polygon points="84.9,30 90.0,10 95.1,30" fill="#ebcab3"/><path d="M60 51 Q48 61 38 83 Q38 94 60 98 Q82 94 82 83 Q72 61 60 51 Z" fill="#f4f0ea"/><ellipse cx="42" cy="67.0" rx="9.4" ry="12.4" fill="#f5f2ef"/><ellipse cx="78" cy="67.0" rx="9.4" ry="12.4" fill="#f5f2ef"/><circle cx="43" cy="69.0" r="5.9" fill="#3f2d20"/><circle cx="79" cy="69.0" r="5.9" fill="#3f2d20"/><path d="M56 73 L64 73 Q60 79 60 79 Z" fill="#e0899a"/><path d="M60 78 L60 83" stroke="#6f6052" stroke-width="1.8" fill="none" stroke-linecap="round"/><path d="M60 83 Q53 87 48 84" stroke="#6f6052" stroke-width="1.8" fill="none" stroke-linecap="round"/><path d="M60 83 Q67 87 72 84" stroke="#6f6052" stroke-width="1.8" fill="none" stroke-linecap="round"/><path d="M70 76 L92 73" stroke="#cfc6bd" stroke-width="1.2" fill="none"/><path d="M70 80 L92 81" stroke="#cfc6bd" stroke-width="1.2" fill="none"/><path d="M50 76 L28 73" stroke="#cfc6bd" stroke-width="1.2" fill="none"/><path d="M50 80 L28 81" stroke="#cfc6bd" stroke-width="1.2" fill="none"/><clipPath id="shcat1"><ellipse cx="60" cy="64" rx="48" ry="45"/></clipPath><polygon points="74,2 124,2 124,128 12,128" fill="#000" opacity="0.10" clip-path="url(#shcat1)"/></g></svg>