<svg xmlns="http://www.w3.org/2000/svg" viewBox="0 0 120 140" width="120" height="140" role="img"><title>ねこ わかもの</title><g transform="translate(6.0,21.0) scale(0.9)"><ellipse cx="60" cy="64" rx="48" ry="45" fill="#897b6e"/><polygon points="19.8,32 30.0,2 40.2,32" fill="#897b6e"/><polygon points="79.8,32 90.0,2 100.2,32" fill="#897b6e"/><polygon points="24.3,30 30.0,10 35.7,30" fill="#e8c3a9"/><polygon points="84.3,30 90.0,10 95.7,30" fill="#e8c3a9"/><path d="M60 46 Q48 56 38 78 Q38 94 60 98 Q82 94 82 78 Q72 56 60 46 Z" fill="#f4f0ea"/><ellipse cx="42" cy="62.0" rx="8.6" ry="11.3" fill="#f5f2ef"/><ellipse cx="78" cy="62.0" rx="8.6" ry="11.3" fill="#f5f2ef"/><circle cx="43" cy="64.0" r="5.4" fill="#3f2d20"/><circle cx="79" cy="64.0" r="5.4" fill="#3f2d20"/><path d="M56 68 L64 68 Q60 74 60 74 Z" fill="#e0899a"/><path d="M60 73 L60 78" stroke="#6f6052" stroke-width="1.8" fill="none" stroke-linecap="round"/><path d="M60 78 Q53 82 48 79" stroke="#6f6052" stroke-width="1.8" fill="none" stroke-linecap="round"/><path d="M60 78 Q67 82 72 79" stroke="#6f6052" stroke-width="1.8" fill="none" stroke-linecap="round"/><path d="M70 71 L92 68" stroke="#cfc6bd" stroke-width="1.2" fill="none"/><path d="M70 75 L92 76" stroke="#cfc6bd" stroke-width="1.2" fill="none"/><path d="M50 71 L28 68" stroke="#cfc6bd" stroke-width="1.2" fill="none"/><path d="M50 75 L28 76" stroke="#cfc6bd" stroke-width="1.2" fill="none"/><clipPath id="shcat2"><ellipse cx="60" cy="64" rx="48" ry="45"/></clipPath><polygon points="74,2 124,2 124,128 12,128" fill="#000" opacity="0.10" clip-path="url(#shcat2)"/></g></svg>