<svg xmlns="http://www.w3.org/2000/svg" viewBox="0 0 120 140" width="120" height="140" role="img"><title>ねこ おとな</title><g transform="translate(0.0,10.0) scale(1.0)"><ellipse cx="60" cy="64" rx="48" ry="45" fill="#7d6e60"/><polygon points="19.0,32 30.0,2 41.0,32" fill="#7d6e60"/><polygon points="79.0,32 90.0,2 101.0,32" fill="#7d6e60"/><polygon points="23.8,30 30.0,10 36.2,30" fill="#e6bda0"/><polygon points="83.8,30 90.0,10 96.2,30" fill="#e6bda0"/><path d="M60 41 Q48 51 38 73 Q38 94 60 98 Q82 94 82 73 Q72 51 60 41 Z" fill="#f4f0ea"/><ellipse cx="42" cy="57.0" rx="8.0" ry="10.5" fill="#f5f2ef"/><ellipse cx="78" cy="57.0" rx="8.0" ry="10.5" fill="#f5f2ef"/><circle cx="43" cy="59.0" r="5.0" fill="#3f2d20"/><circle cx="79" cy="59.0" r="5.0" fill="#3f2d20"/><path d="M56 63 L64 63 Q60 69 60 69 Z" fill="#e0899a"/><path d="M60 68 L60 73" stroke="#6f6052" stroke-width="1.8" fill="none" stroke-linecap="round"/><path d="M60 73 Q53 77 48 74" stroke="#6f6052" stroke-width="1.8" fill="none" stroke-linecap="round"/><path d="M60 73 Q67 77 72 74" stroke="#6f6052" stroke-width="1.8" fill="none" stroke-linecap="round"/><path d="M70 66 L92 63" stroke="#cfc6bd" stroke-width="1.2" fill="none"/><path d="M70 70 L92 71" stroke="#cfc6bd" stroke-width="1.2" fill="none"/><path d="M50 66 L28 63" stroke="#cfc6bd" stroke-width="1.2" fill="none"/><path d="M50 70 L28 71" stroke="#cfc6bd" stroke-width="1.2" fill="none"/><clipPath id="shcat3"><ellipse cx="60" cy="64" rx="48" ry="45"/></clipPath><polygon points="74,2 124,2 124,128 12,128" fill="#000" opacity="0.10" clip-path="url(#shcat3)"/></g></svg>