<svg xmlns="http://www.w3.org/2000/svg" viewBox="0 0 120 140" width="120" height="140" role="img"><title>ねこ あかちゃん</title><g transform="translate(18.0,43.0) scale(0.7)"><ellipse cx="60" cy="64" rx="48" ry="45" fill="#a99f96"/><polygon points="22.3,32 30.0,2 37.7,32" fill="#a99f96"/><polygon points="82.3,32 90.0,2 97.7,32" fill="#a99f96"/><polygon points="25.7,30 30.0,10 34.3,30" fill="#eed3c0"/><polygon points="85.7,30 90.0,10 94.3,30" fill="#eed3c0"/><path d="M60 57 Q48 67 38 89 Q38 94 60 98 Q82 94 82 89 Q72 67 60 57 Z" fill="#f4f0ea"/><ellipse cx="42" cy="73.0" rx="10.7" ry="14.1" fill="#f5f2ef"/><ellipse cx="78" cy="73.0" rx="10.7" ry="14.1" fill="#f5f2ef"/><circle cx="43" cy="75.0" r="6.7" fill="#3f2d20"/><circle cx="79" cy="75.0" r="6.7" fill="#3f2d20"/><circle cx="40" cy="71.0" r="2.6" fill="#fff"/><circle cx="76" cy="71.0" r="2.6" fill="#fff"/><path d="M56 79 L64 79 Q60 85 60 85 Z" fill="#e0899a"/><path d="M60 84 L60 89" stroke="#6f6052" stroke-width="1.8" fill="none" stroke-linecap="round"/><path d="M60 89 Q53 93 48 90" stroke="#6f6052" stroke-width="1.8" fill="none" stroke-linecap="round"/><path d="M60 89 Q67 93 72 90" stroke="#6f6052" stroke-width="1.8" fill="none" stroke-linecap="round"/><path d="M70 82 L92 79" stroke="#cfc6bd" stroke-width="1.2" fill="none"/><path d="M70 86 L92 87" stroke="#cfc6bd" stroke-width="1.2" fill="none"/><path d="M50 82 L28 79" stroke="#cfc6bd" stroke-width="1.2" fill="none"/><path d="M50 86 L28 87" stroke="#cfc6bd" stroke-width="1.2" fill="none"/><clipPath id="shcat0"><ellipse cx="60" cy="64" rx="48" ry="45"/></clipPath><polygon points="74,2 124,2 124,128 12,128" fill="#000" opacity="0.10" clip-path="url(#shcat0)"/></g></svg>