<svg xmlns="http://www.w3.org/2000/svg" viewBox="0 0 120 140" width="120" height="140" role="img"><title>ヒヨコ あかちゃん</title><g transform="translate(18.0,43.0) scale(0.7)"><path d="M60 28 C56 12 50 12 52 26" fill="#e0c679"/><path d="M60 28 C60 8 60 8 60 24" fill="#e0c679"/><path d="M60 28 C64 12 70 12 68 26" fill="#e0c679"/><ellipse cx="60" cy="66" rx="44" ry="44" fill="#ffe18a"/><ellipse cx="47" cy="76.0" rx="8.7" ry="10.7" fill="#f5f2ef"/><ellipse cx="73" cy="76.0" rx="8.7" ry="10.7" fill="#f5f2ef"/><circle cx="48" cy="78.0" r="6.7" fill="#3f2d20"/><circle cx="74" cy="78.0" r="6.7" fill="#3f2d20"/><circle cx="45" cy="74.0" r="2.1" fill="#fff"/><circle cx="71" cy="74.0" r="2.1" fill="#fff"/><polygon points="60,83 68,87 60,94" fill="#f3a13a"/><polygon points="60,83 52,87 60,94" fill="#e8922f"/><circle cx="40" cy="86" r="4" fill="#f7b5a0" opacity="0.7"/><circle cx="80" cy="86" r="4" fill="#f7b5a0" opacity="0.7"/><clipPath id="shchick0"><ellipse cx="60" cy="66" rx="44" ry="44"/></clipPath><polygon points="74,2 124,2 124,128 12,128" fill="#000" opacity="0.10" clip-path="url(#shchick0)"/></g></svg>