<svg xmlns="http://www.w3.org/2000/svg" viewBox="0 0 120 140" width="120" height="140" role="img"><title>ヒヨコ こども</title><g transform="translate(12.0,32.0) scale(0.8)"><path d="M60 28 C56 12 50 12 52 26" fill="#e0c163"/><path d="M60 28 C60 8 60 8 60 24" fill="#e0c163"/><path d="M60 28 C64 12 70 12 68 26" fill="#e0c163"/><ellipse cx="60" cy="66" rx="44" ry="44" fill="#ffdb71"/><ellipse cx="47" cy="70.0" rx="7.7" ry="9.4" fill="#f5f2ef"/><ellipse cx="73" cy="70.0" rx="7.7" ry="9.4" fill="#f5f2ef"/><circle cx="48" cy="72.0" r="5.9" fill="#3f2d20"/><circle cx="74" cy="72.0" r="5.9" fill="#3f2d20"/><polygon points="60,77 68,81 60,88" fill="#f3a13a"/><polygon points="60,77 52,81 60,88" fill="#e8922f"/><circle cx="40" cy="80" r="4" fill="#f7b5a0" opacity="0.7"/><circle cx="80" cy="80" r="4" fill="#f7b5a0" opacity="0.7"/><clipPath id="shchick1"><ellipse cx="60" cy="66" rx="44" ry="44"/></clipPath><polygon points="74,2 124,2 124,128 12,128" fill="#000" opacity="0.10" clip-path="url(#shchick1)"/></g></svg>