<svg xmlns="http://www.w3.org/2000/svg" viewBox="0 0 120 140" width="120" height="140" role="img"><title>うし あかちゃん</title><g transform="translate(18.0,43.0) scale(0.7)"><path d="M44 25 Q34 17 36 23" stroke="#dccfb8" stroke-width="5" fill="none" stroke-linecap="round"/><path d="M76 25 Q86 17 84 23" stroke="#dccfb8" stroke-width="5" fill="none" stroke-linecap="round"/><ellipse cx="60" cy="64" rx="48" ry="45" fill="#f6f3ef"/><ellipse cx="43" cy="72.0" rx="10.7" ry="13.4" fill="#f5f2ef"/><ellipse cx="77" cy="72.0" rx="10.7" ry="13.4" fill="#f5f2ef"/><circle cx="44" cy="74.0" r="6.7" fill="#3f2d20"/><circle cx="78" cy="74.0" r="6.7" fill="#3f2d20"/><circle cx="41" cy="70.0" r="2.6" fill="#fff"/><circle cx="75" cy="70.0" r="2.6" fill="#fff"/><ellipse cx="60" cy="86" rx="12.8" ry="8.7" fill="#eaa6ac"/><ellipse cx="60" cy="86" rx="10.4" ry="6.8" fill="#eaa6ac"/><ellipse cx="56.4" cy="86" rx="1.7" ry="2.6" fill="#986c70"/><ellipse cx="63.6" cy="86" rx="1.7" ry="2.6" fill="#986c70"/><path d="M78 46 Q96 48 92 66 Q82 68 78 46 Z" fill="#6f6d6c" opacity="0.9"/><clipPath id="shcow0"><ellipse cx="60" cy="64" rx="48" ry="45"/></clipPath><polygon points="74,2 124,2 124,128 12,128" fill="#000" opacity="0.10" clip-path="url(#shcow0)"/></g></svg>