<svg xmlns="http://www.w3.org/2000/svg" viewBox="0 0 120 140" width="120" height="140" role="img"><title>うし はかせ ★</title><g transform="translate(0.0,10.0) scale(1.0)"><path d="M44 25 Q34 17 36 23" stroke="#dccfb8" stroke-width="5" fill="none" stroke-linecap="round"/><path d="M76 25 Q86 17 84 23" stroke="#dccfb8" stroke-width="5" fill="none" stroke-linecap="round"/><ellipse cx="60" cy="64" rx="48" ry="45" fill="#f1ede7"/><ellipse cx="43" cy="56.0" rx="8.0" ry="10.0" fill="#f5f2ef"/><ellipse cx="77" cy="56.0" rx="8.0" ry="10.0" fill="#f5f2ef"/><circle cx="44" cy="58.0" r="5.0" fill="#3f2d20"/><circle cx="78" cy="58.0" r="5.0" fill="#3f2d20"/><ellipse cx="60" cy="86" rx="22.0" ry="15.0" fill="#eaa6ac"/><ellipse cx="60" cy="86" rx="13.0" ry="8.5" fill="#eaa6ac"/><ellipse cx="55.5" cy="86" rx="1.7" ry="2.6" fill="#986c70"/><ellipse cx="64.5" cy="86" rx="1.7" ry="2.6" fill="#986c70"/><path d="M78 46 Q96 48 92 66 Q82 68 78 46 Z" fill="#6c6b68" opacity="0.9"/><clipPath id="shcow4"><ellipse cx="60" cy="64" rx="48" ry="45"/></clipPath><polygon points="74,2 124,2 124,128 12,128" fill="#000" opacity="0.10" clip-path="url(#shcow4)"/><circle cx="43" cy="56.0" r="12.5" stroke="#2b2b2b" stroke-width="2.4" fill="none"/><circle cx="77" cy="56.0" r="12.5" stroke="#2b2b2b" stroke-width="2.4" fill="none"/><path d="M55.5 56.0 L64.5 56.0" stroke="#2b2b2b" stroke-width="2.4" fill="none"/><polygon points="60,12 100,28 60,44 20,28" fill="#2b2b2b"/><ellipse cx="60" cy="33" rx="13" ry="6" fill="#2b2b2b"/><circle cx="60" cy="28" r="2.2" fill="#e0a93b"/><path d="M60 28 L86 32 L86 44" stroke="#e0a93b" stroke-width="2" fill="none"/><circle cx="86" cy="46" r="3" fill="#e0a93b"/><polygon points="13,56 15,61 20,63 15,65 13,70 11,65 6,63 11,61" fill="#e0a93b"/><polygon points="108,48 110,53 115,55 110,57 108,62 106,57 101,55 106,53" fill="#e0a93b"/></g></svg>