<svg xmlns="http://www.w3.org/2000/svg" viewBox="0 0 120 140" width="120" height="140" role="img"><title>うし こども</title><g transform="translate(12.0,32.0) scale(0.8)"><path d="M44 25 Q34 17 36 23" stroke="#dccfb8" stroke-width="5" fill="none" stroke-linecap="round"/><path d="M76 25 Q86 17 84 23" stroke="#dccfb8" stroke-width="5" fill="none" stroke-linecap="round"/><ellipse cx="60" cy="64" rx="48" ry="45" fill="#f4f1ec"/><ellipse cx="43" cy="66.0" rx="9.4" ry="11.8" fill="#f5f2ef"/><ellipse cx="77" cy="66.0" rx="9.4" ry="11.8" fill="#f5f2ef"/><circle cx="44" cy="68.0" r="5.9" fill="#3f2d20"/><circle cx="78" cy="68.0" r="5.9" fill="#3f2d20"/><ellipse cx="60" cy="86" rx="16.7" ry="11.4" fill="#eaa6ac"/><ellipse cx="60" cy="86" rx="11.7" ry="7.7" fill="#eaa6ac"/><ellipse cx="56.0" cy="86" rx="1.7" ry="2.6" fill="#986c70"/><ellipse cx="64.0" cy="86" rx="1.7" ry="2.6" fill="#986c70"/><path d="M78 46 Q96 48 92 66 Q82 68 78 46 Z" fill="#6e6c6a" opacity="0.9"/><clipPath id="shcow1"><ellipse cx="60" cy="64" rx="48" ry="45"/></clipPath><polygon points="74,2 124,2 124,128 12,128" fill="#000" opacity="0.10" clip-path="url(#shcow1)"/></g></svg>