<svg xmlns="http://www.w3.org/2000/svg" viewBox="0 0 120 140" width="120" height="140" role="img"><title>うし わかもの</title><g transform="translate(6.0,21.0) scale(0.9)"><path d="M44 25 Q34 17 36 23" stroke="#dccfb8" stroke-width="5" fill="none" stroke-linecap="round"/><path d="M76 25 Q86 17 84 23" stroke="#dccfb8" stroke-width="5" fill="none" stroke-linecap="round"/><ellipse cx="60" cy="64" rx="48" ry="45" fill="#f2efe9"/><ellipse cx="43" cy="61.0" rx="8.6" ry="10.8" fill="#f5f2ef"/><ellipse cx="77" cy="61.0" rx="8.6" ry="10.8" fill="#f5f2ef"/><circle cx="44" cy="63.0" r="5.4" fill="#3f2d20"/><circle cx="78" cy="63.0" r="5.4" fill="#3f2d20"/><ellipse cx="60" cy="86" rx="19.4" ry="13.2" fill="#eaa6ac"/><ellipse cx="60" cy="86" rx="12.5" ry="8.2" fill="#eaa6ac"/><ellipse cx="55.7" cy="86" rx="1.7" ry="2.6" fill="#986c70"/><ellipse cx="64.3" cy="86" rx="1.7" ry="2.6" fill="#986c70"/><path d="M78 46 Q96 48 92 66 Q82 68 78 46 Z" fill="#6d6c69" opacity="0.9"/><clipPath id="shcow2"><ellipse cx="60" cy="64" rx="48" ry="45"/></clipPath><polygon points="74,2 124,2 124,128 12,128" fill="#000" opacity="0.10" clip-path="url(#shcow2)"/></g></svg>