<svg xmlns="http://www.w3.org/2000/svg" viewBox="0 0 120 140" width="120" height="140" role="img"><title>しか はかせ ★</title><g transform="translate(0.0,10.0) scale(1.0)"><path d="M44 23 L40 5.0" stroke="#b98e54" stroke-width="3" fill="none" stroke-linecap="round"/><path d="M42 13 L32 10" stroke="#b98e54" stroke-width="2.4" fill="none" stroke-linecap="round"/><path d="M76 23 L80 5.0" stroke="#b98e54" stroke-width="3" fill="none" stroke-linecap="round"/><path d="M78 13 L88 10" stroke="#b98e54" stroke-width="2.4" fill="none" stroke-linecap="round"/><ellipse cx="60" cy="64" rx="44" ry="45" fill="#c89a68"/><ellipse cx="45" cy="57.0" rx="8.0" ry="10.0" fill="#f5f2ef"/><ellipse cx="75" cy="57.0" rx="8.0" ry="10.0" fill="#f5f2ef"/><circle cx="46" cy="59.0" r="5.0" fill="#3f2d20"/><circle cx="76" cy="59.0" r="5.0" fill="#3f2d20"/><ellipse cx="60" cy="84" rx="16.0" ry="12.0" fill="#efe6d6"/><ellipse cx="60" cy="79" rx="6.5" ry="4.5" fill="#3f2d20"/><clipPath id="shdeer4"><ellipse cx="60" cy="64" rx="44" ry="45"/></clipPath><polygon points="74,2 124,2 124,128 12,128" fill="#000" opacity="0.10" clip-path="url(#shdeer4)"/><circle cx="45" cy="57.0" r="12.5" stroke="#2b2b2b" stroke-width="2.4" fill="none"/><circle cx="75" cy="57.0" r="12.5" stroke="#2b2b2b" stroke-width="2.4" fill="none"/><path d="M57.5 57.0 L62.5 57.0" stroke="#2b2b2b" stroke-width="2.4" fill="none"/><polygon points="60,12 100,28 60,44 20,28" fill="#2b2b2b"/><ellipse cx="60" cy="33" rx="13" ry="6" fill="#2b2b2b"/><circle cx="60" cy="28" r="2.2" fill="#e0a93b"/><path d="M60 28 L86 32 L86 44" stroke="#e0a93b" stroke-width="2" fill="none"/><circle cx="86" cy="46" r="3" fill="#e0a93b"/><polygon points="13,57 15,62 20,64 15,66 13,71 11,66 6,64 11,62" fill="#e0a93b"/><polygon points="108,49 110,54 115,56 110,58 108,63 106,58 101,56 106,54" fill="#e0a93b"/></g></svg>