<svg xmlns="http://www.w3.org/2000/svg" viewBox="0 0 120 140" width="120" height="140" role="img"><title>いぬ はかせ ★</title><g transform="translate(0.0,10.0) scale(1.0)"><ellipse cx="16" cy="48" rx="13.0" ry="26.0" fill="#b07f48"/><ellipse cx="104" cy="48" rx="13.0" ry="26.0" fill="#b07f48"/><ellipse cx="60" cy="62" rx="46" ry="44" fill="#cb9c64"/><ellipse cx="44" cy="56.0" rx="8.0" ry="10.0" fill="#f5f2ef"/><ellipse cx="76" cy="56.0" rx="8.0" ry="10.0" fill="#f5f2ef"/><circle cx="45" cy="58.0" r="5.0" fill="#3f2d20"/><circle cx="77" cy="58.0" r="5.0" fill="#3f2d20"/><ellipse cx="60" cy="84" rx="20.0" ry="14.0" fill="#f2ebdd"/><ellipse cx="60" cy="77" rx="6.5" ry="4.5" fill="#3f2d20"/><path d="M60 82 L60 88" stroke="#3f2d20" stroke-width="2" fill="none" stroke-linecap="round"/><path d="M49 91 Q60 98 71 91" stroke="#3f2d20" stroke-width="2" fill="none" stroke-linecap="round"/><clipPath id="shdog4"><ellipse cx="60" cy="62" rx="46" ry="44"/></clipPath><polygon points="74,2 124,2 124,128 12,128" fill="#000" opacity="0.10" clip-path="url(#shdog4)"/><circle cx="44" cy="56.0" r="12.5" stroke="#2b2b2b" stroke-width="2.4" fill="none"/><circle cx="76" cy="56.0" r="12.5" stroke="#2b2b2b" stroke-width="2.4" fill="none"/><path d="M56.5 56.0 L63.5 56.0" stroke="#2b2b2b" stroke-width="2.4" fill="none"/><polygon points="60,11 100,27 60,43 20,27" fill="#2b2b2b"/><ellipse cx="60" cy="32" rx="13" ry="6" fill="#2b2b2b"/><circle cx="60" cy="27" r="2.2" fill="#e0a93b"/><path d="M60 27 L86 31 L86 43" stroke="#e0a93b" stroke-width="2" fill="none"/><circle cx="86" cy="45" r="3" fill="#e0a93b"/><polygon points="13,56 15,61 20,63 15,65 13,70 11,65 6,63 11,61" fill="#e0a93b"/><polygon points="108,48 110,53 115,55 110,57 108,62 106,57 101,55 106,53" fill="#e0a93b"/></g></svg>