<svg xmlns="http://www.w3.org/2000/svg" viewBox="0 0 120 140" width="120" height="140" role="img"><title>いぬ わかもの</title><g transform="translate(6.0,21.0) scale(0.9)"><ellipse cx="16" cy="48" rx="12.1" ry="24.2" fill="#b07f48"/><ellipse cx="104" cy="48" rx="12.1" ry="24.2" fill="#b07f48"/><ellipse cx="60" cy="62" rx="46" ry="44" fill="#d0a572"/><ellipse cx="44" cy="61.0" rx="8.6" ry="10.8" fill="#f5f2ef"/><ellipse cx="76" cy="61.0" rx="8.6" ry="10.8" fill="#f5f2ef"/><circle cx="45" cy="63.0" r="5.4" fill="#3f2d20"/><circle cx="77" cy="63.0" r="5.4" fill="#3f2d20"/><ellipse cx="60" cy="84" rx="17.6" ry="12.3" fill="#f2ebdd"/><ellipse cx="60" cy="77" rx="6.2" ry="4.3" fill="#3f2d20"/><path d="M60 82 L60 88" stroke="#3f2d20" stroke-width="2" fill="none" stroke-linecap="round"/><path d="M49 91 Q60 98 71 91" stroke="#3f2d20" stroke-width="2" fill="none" stroke-linecap="round"/><clipPath id="shdog2"><ellipse cx="60" cy="62" rx="46" ry="44"/></clipPath><polygon points="74,2 124,2 124,128 12,128" fill="#000" opacity="0.10" clip-path="url(#shdog2)"/></g></svg>