<svg xmlns="http://www.w3.org/2000/svg" viewBox="0 0 120 140" width="120" height="140" role="img"><title>いぬ あかちゃん</title><g transform="translate(18.0,43.0) scale(0.7)"><ellipse cx="16" cy="48" rx="9.1" ry="18.2" fill="#b07f48"/><ellipse cx="104" cy="48" rx="9.1" ry="18.2" fill="#b07f48"/><ellipse cx="60" cy="62" rx="46" ry="44" fill="#ddbe99"/><ellipse cx="44" cy="72.0" rx="10.7" ry="13.4" fill="#f5f2ef"/><ellipse cx="76" cy="72.0" rx="10.7" ry="13.4" fill="#f5f2ef"/><circle cx="45" cy="74.0" r="6.7" fill="#3f2d20"/><circle cx="77" cy="74.0" r="6.7" fill="#3f2d20"/><circle cx="42" cy="70.0" r="2.6" fill="#fff"/><circle cx="74" cy="70.0" r="2.6" fill="#fff"/><ellipse cx="60" cy="84" rx="11.6" ry="8.1" fill="#f2ebdd"/><ellipse cx="60" cy="77" rx="5.2" ry="3.6" fill="#3f2d20"/><path d="M60 82 L60 88" stroke="#3f2d20" stroke-width="2" fill="none" stroke-linecap="round"/><path d="M49 91 Q60 98 71 91" stroke="#3f2d20" stroke-width="2" fill="none" stroke-linecap="round"/><clipPath id="shdog0"><ellipse cx="60" cy="62" rx="46" ry="44"/></clipPath><polygon points="74,2 124,2 124,128 12,128" fill="#000" opacity="0.10" clip-path="url(#shdog0)"/></g></svg>