<svg xmlns="http://www.w3.org/2000/svg" viewBox="0 0 120 140" width="120" height="140" role="img"><title>あひる はかせ ★</title><g transform="translate(0.0,10.0) scale(1.0)"><ellipse cx="60" cy="64" rx="45" ry="44" fill="#ffd24d"/><ellipse cx="46" cy="55.0" rx="7.0" ry="9.0" fill="#f5f2ef"/><ellipse cx="74" cy="55.0" rx="7.0" ry="9.0" fill="#f5f2ef"/><circle cx="47" cy="57.0" r="5.0" fill="#3f2d20"/><circle cx="75" cy="57.0" r="5.0" fill="#3f2d20"/><ellipse cx="60" cy="68" rx="17" ry="8.5" fill="#f3a13a"/><path d="M44 69 Q60 75 76 69" stroke="#d98a2c" stroke-width="1.4" fill="none"/><clipPath id="shduck4"><ellipse cx="60" cy="64" rx="45" ry="44"/></clipPath><polygon points="74,2 124,2 124,128 12,128" fill="#000" opacity="0.10" clip-path="url(#shduck4)"/><circle cx="46" cy="55.0" r="11.5" stroke="#2b2b2b" stroke-width="2.4" fill="none"/><circle cx="74" cy="55.0" r="11.5" stroke="#2b2b2b" stroke-width="2.4" fill="none"/><path d="M57.5 55.0 L62.5 55.0" stroke="#2b2b2b" stroke-width="2.4" fill="none"/><polygon points="60,13 100,29 60,45 20,29" fill="#2b2b2b"/><ellipse cx="60" cy="34" rx="13" ry="6" fill="#2b2b2b"/><circle cx="60" cy="29" r="2.2" fill="#e0a93b"/><path d="M60 29 L86 33 L86 45" stroke="#e0a93b" stroke-width="2" fill="none"/><circle cx="86" cy="47" r="3" fill="#e0a93b"/><polygon points="13,55 15,60 20,62 15,64 13,69 11,64 6,62 11,60" fill="#e0a93b"/><polygon points="108,47 110,52 115,54 110,56 108,61 106,56 101,54 106,52" fill="#e0a93b"/></g></svg>