<svg xmlns="http://www.w3.org/2000/svg" viewBox="0 0 120 140" width="120" height="140" role="img"><title>ぞう わかもの</title><g transform="translate(6.0,21.0) scale(0.9)"><ellipse cx="16" cy="56" rx="27.9" ry="31.6" fill="#a3abb0"/><ellipse cx="20.0" cy="58" rx="16.7" ry="19.6" fill="#8f969b"/><ellipse cx="104" cy="56" rx="27.9" ry="31.6" fill="#a3abb0"/><ellipse cx="100.0" cy="58" rx="16.7" ry="19.6" fill="#8f969b"/><ellipse cx="60" cy="64" rx="46" ry="46" fill="#a3abb0"/><ellipse cx="38" cy="59.0" rx="6.5" ry="8.1" fill="#f5f2ef"/><ellipse cx="82" cy="59.0" rx="6.5" ry="8.1" fill="#f5f2ef"/><circle cx="39" cy="61.0" r="4.3" fill="#3f2d20"/><circle cx="83" cy="61.0" r="4.3" fill="#3f2d20"/><path d="M50 87 Q44 101 49 109" stroke="#f3efe7" stroke-width="4.5" fill="none" stroke-linecap="round"/><path d="M70 87 Q76 101 71 109" stroke="#f3efe7" stroke-width="4.5" fill="none" stroke-linecap="round"/><path d="M52 57 C48 85 51 107 55 115 C57 120 63 120 65 115 C69 107 72 85 68 57 Z" fill="#a3abb0" stroke="#7f8589" stroke-width="1.8" stroke-linejoin="round"/><path d="M54.5 95 Q60 99 65.5 95" stroke="#7f8589" stroke-width="1.4" fill="none"/><ellipse cx="60" cy="115" rx="7" ry="4.5" fill="#7f8589"/><circle cx="57" cy="115" r="1.4" fill="#2f3133"/><circle cx="63" cy="115" r="1.4" fill="#2f3133"/><clipPath id="shelephant2"><ellipse cx="60" cy="64" rx="46" ry="46"/></clipPath><polygon points="74,2 124,2 124,128 12,128" fill="#000" opacity="0.10" clip-path="url(#shelephant2)"/></g></svg>