<svg xmlns="http://www.w3.org/2000/svg" viewBox="0 0 120 140" width="120" height="140" role="img"><title>ぞう はかせ ★</title><g transform="translate(0.0,10.0) scale(1.0)"><ellipse cx="16" cy="56" rx="30.0" ry="34.0" fill="#9aa3a8"/><ellipse cx="20.0" cy="58" rx="18.0" ry="21.1" fill="#888f94"/><ellipse cx="104" cy="56" rx="30.0" ry="34.0" fill="#9aa3a8"/><ellipse cx="100.0" cy="58" rx="18.0" ry="21.1" fill="#888f94"/><ellipse cx="60" cy="64" rx="46" ry="46" fill="#9aa3a8"/><ellipse cx="38" cy="54.0" rx="6.0" ry="7.5" fill="#f5f2ef"/><ellipse cx="82" cy="54.0" rx="6.0" ry="7.5" fill="#f5f2ef"/><circle cx="39" cy="56.0" r="4.0" fill="#3f2d20"/><circle cx="83" cy="56.0" r="4.0" fill="#3f2d20"/><path d="M50 82 Q44 96 49 104" stroke="#f3efe7" stroke-width="4.5" fill="none" stroke-linecap="round"/><path d="M70 82 Q76 96 71 104" stroke="#f3efe7" stroke-width="4.5" fill="none" stroke-linecap="round"/><path d="M52 52 C48 80 51 102 55 110 C57 115 63 115 65 110 C69 102 72 80 68 52 Z" fill="#9aa3a8" stroke="#787f83" stroke-width="1.8" stroke-linejoin="round"/><path d="M54.5 90 Q60 94 65.5 90" stroke="#787f83" stroke-width="1.4" fill="none"/><ellipse cx="60" cy="110" rx="7" ry="4.5" fill="#787f83"/><circle cx="57" cy="110" r="1.4" fill="#2f3133"/><circle cx="63" cy="110" r="1.4" fill="#2f3133"/><clipPath id="shelephant4"><ellipse cx="60" cy="64" rx="46" ry="46"/></clipPath><polygon points="74,2 124,2 124,128 12,128" fill="#000" opacity="0.10" clip-path="url(#shelephant4)"/><circle cx="38" cy="54.0" r="10.5" stroke="#2b2b2b" stroke-width="2.4" fill="none"/><circle cx="82" cy="54.0" r="10.5" stroke="#2b2b2b" stroke-width="2.4" fill="none"/><path d="M48.5 54.0 L71.5 54.0" stroke="#2b2b2b" stroke-width="2.4" fill="none"/><polygon points="60,11 100,27 60,43 20,27" fill="#2b2b2b"/><ellipse cx="60" cy="32" rx="13" ry="6" fill="#2b2b2b"/><circle cx="60" cy="27" r="2.2" fill="#e0a93b"/><path d="M60 27 L86 31 L86 43" stroke="#e0a93b" stroke-width="2" fill="none"/><circle cx="86" cy="45" r="3" fill="#e0a93b"/><polygon points="13,54 15,59 20,61 15,63 13,68 11,63 6,61 11,59" fill="#e0a93b"/><polygon points="108,46 110,51 115,53 110,55 108,60 106,55 101,53 106,51" fill="#e0a93b"/></g></svg>