<svg xmlns="http://www.w3.org/2000/svg" viewBox="0 0 120 140" width="120" height="140" role="img"><title>ぞう あかちゃん</title><g transform="translate(18.0,43.0) scale(0.7)"><ellipse cx="16" cy="56" rx="21.0" ry="23.8" fill="#bcc2c6"/><ellipse cx="20.0" cy="58" rx="12.6" ry="14.8" fill="#a5abae"/><ellipse cx="104" cy="56" rx="21.0" ry="23.8" fill="#bcc2c6"/><ellipse cx="100.0" cy="58" rx="12.6" ry="14.8" fill="#a5abae"/><ellipse cx="60" cy="64" rx="46" ry="46" fill="#bcc2c6"/><ellipse cx="38" cy="70.0" rx="8.0" ry="10.1" fill="#f5f2ef"/><ellipse cx="82" cy="70.0" rx="8.0" ry="10.1" fill="#f5f2ef"/><circle cx="39" cy="72.0" r="5.4" fill="#3f2d20"/><circle cx="83" cy="72.0" r="5.4" fill="#3f2d20"/><circle cx="36" cy="68.0" r="1.9" fill="#fff"/><circle cx="80" cy="68.0" r="1.9" fill="#fff"/><path d="M50 98 Q44 112 49 120" stroke="#f3efe7" stroke-width="4.5" fill="none" stroke-linecap="round"/><path d="M70 98 Q76 112 71 120" stroke="#f3efe7" stroke-width="4.5" fill="none" stroke-linecap="round"/><path d="M52 68 C48 96 51 118 55 126 C57 131 63 131 65 126 C69 118 72 96 68 68 Z" fill="#bcc2c6" stroke="#93979a" stroke-width="1.8" stroke-linejoin="round"/><path d="M54.5 106 Q60 110 65.5 106" stroke="#93979a" stroke-width="1.4" fill="none"/><ellipse cx="60" cy="126" rx="7" ry="4.5" fill="#93979a"/><circle cx="57" cy="126" r="1.4" fill="#2f3133"/><circle cx="63" cy="126" r="1.4" fill="#2f3133"/><clipPath id="shelephant0"><ellipse cx="60" cy="64" rx="46" ry="46"/></clipPath><polygon points="74,2 124,2 124,128 12,128" fill="#000" opacity="0.10" clip-path="url(#shelephant0)"/></g></svg>