<svg xmlns="http://www.w3.org/2000/svg" viewBox="0 0 120 140" width="120" height="140" role="img"><title>ぞう こども</title><g transform="translate(12.0,32.0) scale(0.8)"><ellipse cx="16" cy="56" rx="24.9" ry="28.2" fill="#aeb5b9"/><ellipse cx="20.0" cy="58" rx="14.9" ry="17.5" fill="#999fa3"/><ellipse cx="104" cy="56" rx="24.9" ry="28.2" fill="#aeb5b9"/><ellipse cx="100.0" cy="58" rx="14.9" ry="17.5" fill="#999fa3"/><ellipse cx="60" cy="64" rx="46" ry="46" fill="#aeb5b9"/><ellipse cx="38" cy="64.0" rx="7.1" ry="8.8" fill="#f5f2ef"/><ellipse cx="82" cy="64.0" rx="7.1" ry="8.8" fill="#f5f2ef"/><circle cx="39" cy="66.0" r="4.7" fill="#3f2d20"/><circle cx="83" cy="66.0" r="4.7" fill="#3f2d20"/><path d="M50 92 Q44 106 49 114" stroke="#f3efe7" stroke-width="4.5" fill="none" stroke-linecap="round"/><path d="M70 92 Q76 106 71 114" stroke="#f3efe7" stroke-width="4.5" fill="none" stroke-linecap="round"/><path d="M52 62 C48 90 51 112 55 120 C57 125 63 125 65 120 C69 112 72 90 68 62 Z" fill="#aeb5b9" stroke="#888d90" stroke-width="1.8" stroke-linejoin="round"/><path d="M54.5 100 Q60 104 65.5 100" stroke="#888d90" stroke-width="1.4" fill="none"/><ellipse cx="60" cy="120" rx="7" ry="4.5" fill="#888d90"/><circle cx="57" cy="120" r="1.4" fill="#2f3133"/><circle cx="63" cy="120" r="1.4" fill="#2f3133"/><clipPath id="shelephant1"><ellipse cx="60" cy="64" rx="46" ry="46"/></clipPath><polygon points="74,2 124,2 124,128 12,128" fill="#000" opacity="0.10" clip-path="url(#shelephant1)"/></g></svg>