<svg xmlns="http://www.w3.org/2000/svg" viewBox="0 0 120 140" width="120" height="140" role="img"><title>きつね あかちゃん</title><g transform="translate(18.0,43.0) scale(0.7)"><ellipse cx="60" cy="64" rx="48" ry="44" fill="#edc391"/><polygon points="22.3,32 30.0,2 37.7,32" fill="#edc391"/><polygon points="82.3,32 90.0,2 97.7,32" fill="#edc391"/><polygon points="25.7,30 30.0,10 34.3,30" fill="#f9f6f1"/><polygon points="85.7,30 90.0,10 94.3,30" fill="#f9f6f1"/><polygon points="24.8,11 30.0,2 35.2,11" fill="#5a4632"/><polygon points="84.8,11 90.0,2 95.2,11" fill="#5a4632"/><ellipse cx="44" cy="72.0" rx="10.7" ry="13.4" fill="#f5f2ef"/><ellipse cx="76" cy="72.0" rx="10.7" ry="13.4" fill="#f5f2ef"/><circle cx="45" cy="74.0" r="6.7" fill="#3f2d20"/><circle cx="77" cy="74.0" r="6.7" fill="#3f2d20"/><circle cx="42" cy="70.0" r="2.6" fill="#fff"/><circle cx="74" cy="70.0" r="2.6" fill="#fff"/><ellipse cx="60" cy="84" rx="9.9" ry="7.0" fill="#f6f1ea"/><ellipse cx="60" cy="78" rx="5.2" ry="3.6" fill="#3f2d20"/><clipPath id="shfox0"><ellipse cx="60" cy="64" rx="48" ry="44"/></clipPath><polygon points="74,2 124,2 124,128 12,128" fill="#000" opacity="0.10" clip-path="url(#shfox0)"/></g></svg>