<svg xmlns="http://www.w3.org/2000/svg" viewBox="0 0 120 140" width="120" height="140" role="img"><title>きつね おとな</title><g transform="translate(0.0,10.0) scale(1.0)"><ellipse cx="60" cy="64" rx="48" ry="44" fill="#e3a458"/><polygon points="19.0,32 30.0,2 41.0,32" fill="#e3a458"/><polygon points="79.0,32 90.0,2 101.0,32" fill="#e3a458"/><polygon points="23.8,30 30.0,10 36.2,30" fill="#f6f1ea"/><polygon points="83.8,30 90.0,10 96.2,30" fill="#f6f1ea"/><polygon points="22.5,11 30.0,2 37.5,11" fill="#5a4632"/><polygon points="82.5,11 90.0,2 97.5,11" fill="#5a4632"/><ellipse cx="44" cy="56.0" rx="8.0" ry="10.0" fill="#f5f2ef"/><ellipse cx="76" cy="56.0" rx="8.0" ry="10.0" fill="#f5f2ef"/><circle cx="45" cy="58.0" r="5.0" fill="#3f2d20"/><circle cx="77" cy="58.0" r="5.0" fill="#3f2d20"/><ellipse cx="60" cy="84" rx="17.0" ry="12.0" fill="#f6f1ea"/><ellipse cx="60" cy="78" rx="6.5" ry="4.5" fill="#3f2d20"/><clipPath id="shfox3"><ellipse cx="60" cy="64" rx="48" ry="44"/></clipPath><polygon points="74,2 124,2 124,128 12,128" fill="#000" opacity="0.10" clip-path="url(#shfox3)"/></g></svg>