<svg xmlns="http://www.w3.org/2000/svg" viewBox="0 0 120 140" width="120" height="140" role="img"><title>きつね こども</title><g transform="translate(12.0,32.0) scale(0.8)"><ellipse cx="60" cy="64" rx="48" ry="44" fill="#e9b679"/><polygon points="20.9,32 30.0,2 39.1,32" fill="#e9b679"/><polygon points="80.9,32 90.0,2 99.1,32" fill="#e9b679"/><polygon points="24.9,30 30.0,10 35.1,30" fill="#f8f4ee"/><polygon points="84.9,30 90.0,10 95.1,30" fill="#f8f4ee"/><polygon points="23.8,11 30.0,2 36.2,11" fill="#5a4632"/><polygon points="83.8,11 90.0,2 96.2,11" fill="#5a4632"/><ellipse cx="44" cy="66.0" rx="9.4" ry="11.8" fill="#f5f2ef"/><ellipse cx="76" cy="66.0" rx="9.4" ry="11.8" fill="#f5f2ef"/><circle cx="45" cy="68.0" r="5.9" fill="#3f2d20"/><circle cx="77" cy="68.0" r="5.9" fill="#3f2d20"/><ellipse cx="60" cy="84" rx="12.9" ry="9.1" fill="#f6f1ea"/><ellipse cx="60" cy="78" rx="5.9" ry="4.0" fill="#3f2d20"/><clipPath id="shfox1"><ellipse cx="60" cy="64" rx="48" ry="44"/></clipPath><polygon points="74,2 124,2 124,128 12,128" fill="#000" opacity="0.10" clip-path="url(#shfox1)"/></g></svg>