<svg xmlns="http://www.w3.org/2000/svg" viewBox="0 0 120 140" width="120" height="140" role="img"><title>きつね わかもの</title><g transform="translate(6.0,21.0) scale(0.9)"><ellipse cx="60" cy="64" rx="48" ry="44" fill="#e6ac67"/><polygon points="19.8,32 30.0,2 40.2,32" fill="#e6ac67"/><polygon points="79.8,32 90.0,2 100.2,32" fill="#e6ac67"/><polygon points="24.3,30 30.0,10 35.7,30" fill="#f7f2ec"/><polygon points="84.3,30 90.0,10 95.7,30" fill="#f7f2ec"/><polygon points="23.0,11 30.0,2 37.0,11" fill="#5a4632"/><polygon points="83.0,11 90.0,2 97.0,11" fill="#5a4632"/><ellipse cx="44" cy="61.0" rx="8.6" ry="10.8" fill="#f5f2ef"/><ellipse cx="76" cy="61.0" rx="8.6" ry="10.8" fill="#f5f2ef"/><circle cx="45" cy="63.0" r="5.4" fill="#3f2d20"/><circle cx="77" cy="63.0" r="5.4" fill="#3f2d20"/><ellipse cx="60" cy="84" rx="15.0" ry="10.6" fill="#f6f1ea"/><ellipse cx="60" cy="78" rx="6.2" ry="4.3" fill="#3f2d20"/><clipPath id="shfox2"><ellipse cx="60" cy="64" rx="48" ry="44"/></clipPath><polygon points="74,2 124,2 124,128 12,128" fill="#000" opacity="0.10" clip-path="url(#shfox2)"/></g></svg>