<svg xmlns="http://www.w3.org/2000/svg" viewBox="0 0 120 140" width="120" height="140" role="img"><title>うま はかせ ★</title><g transform="translate(0.0,10.0) scale(1.0)"><ellipse cx="60" cy="62" rx="40" ry="49" fill="#b88862"/><polygon points="28.0,26 36.0,2 44.0,26" fill="#b88862"/><polygon points="76.0,26 84.0,2 92.0,26" fill="#b88862"/><polygon points="31.5,24 36.0,10 40.5,24" fill="#caa078"/><polygon points="79.5,24 84.0,10 88.5,24" fill="#caa078"/><ellipse cx="45" cy="54.0" rx="7.5" ry="10.0" fill="#f5f2ef"/><ellipse cx="75" cy="54.0" rx="7.5" ry="10.0" fill="#f5f2ef"/><circle cx="46" cy="56.0" r="5.0" fill="#3f2d20"/><circle cx="76" cy="56.0" r="5.0" fill="#3f2d20"/><ellipse cx="60" cy="92" rx="20.0" ry="17.0" fill="#caa078"/><ellipse cx="60" cy="92" rx="13.0" ry="8.5" fill="#caa078"/><ellipse cx="55.5" cy="92" rx="1.7" ry="2.6" fill="#83684e"/><ellipse cx="64.5" cy="92" rx="1.7" ry="2.6" fill="#83684e"/><path d="M49 19 Q60 5 71 19 Q66 37 60 31 Q54 37 49 19 Z" fill="#9c5a4a"/><clipPath id="shhorse4"><ellipse cx="60" cy="62" rx="40" ry="49"/></clipPath><polygon points="74,2 124,2 124,128 12,128" fill="#000" opacity="0.10" clip-path="url(#shhorse4)"/><circle cx="45" cy="54.0" r="12.0" stroke="#2b2b2b" stroke-width="2.4" fill="none"/><circle cx="75" cy="54.0" r="12.0" stroke="#2b2b2b" stroke-width="2.4" fill="none"/><path d="M57.0 54.0 L63.0 54.0" stroke="#2b2b2b" stroke-width="2.4" fill="none"/><polygon points="60,6 100,22 60,38 20,22" fill="#2b2b2b"/><ellipse cx="60" cy="27" rx="13" ry="6" fill="#2b2b2b"/><circle cx="60" cy="22" r="2.2" fill="#e0a93b"/><path d="M60 22 L86 26 L86 38" stroke="#e0a93b" stroke-width="2" fill="none"/><circle cx="86" cy="40" r="3" fill="#e0a93b"/><polygon points="13,54 15,59 20,61 15,63 13,68 11,63 6,61 11,59" fill="#e0a93b"/><polygon points="108,46 110,51 115,53 110,55 108,60 106,55 101,53 106,51" fill="#e0a93b"/></g></svg>