<svg xmlns="http://www.w3.org/2000/svg" viewBox="0 0 120 140" width="120" height="140" role="img"><title>うま わかもの</title><g transform="translate(6.0,21.0) scale(0.9)"><ellipse cx="60" cy="62" rx="40" ry="49" fill="#be9370"/><polygon points="28.6,26 36.0,2 43.4,26" fill="#be9370"/><polygon points="76.6,26 84.0,2 91.4,26" fill="#be9370"/><polygon points="31.8,24 36.0,10 40.2,24" fill="#cfa984"/><polygon points="79.8,24 84.0,10 88.2,24" fill="#cfa984"/><ellipse cx="45" cy="59.0" rx="8.1" ry="10.8" fill="#f5f2ef"/><ellipse cx="75" cy="59.0" rx="8.1" ry="10.8" fill="#f5f2ef"/><circle cx="46" cy="61.0" r="5.4" fill="#3f2d20"/><circle cx="76" cy="61.0" r="5.4" fill="#3f2d20"/><ellipse cx="60" cy="92" rx="17.6" ry="15.0" fill="#caa078"/><ellipse cx="60" cy="92" rx="12.5" ry="8.2" fill="#caa078"/><ellipse cx="55.7" cy="92" rx="1.7" ry="2.6" fill="#83684e"/><ellipse cx="64.3" cy="92" rx="1.7" ry="2.6" fill="#83684e"/><path d="M49 19 Q60 5 71 19 Q66 37 60 31 Q54 37 49 19 Z" fill="#9c5a4a"/><clipPath id="shhorse2"><ellipse cx="60" cy="62" rx="40" ry="49"/></clipPath><polygon points="74,2 124,2 124,128 12,128" fill="#000" opacity="0.10" clip-path="url(#shhorse2)"/></g></svg>