<svg xmlns="http://www.w3.org/2000/svg" viewBox="0 0 120 140" width="120" height="140" role="img"><title>うま こども</title><g transform="translate(12.0,32.0) scale(0.8)"><ellipse cx="60" cy="62" rx="40" ry="49" fill="#c6a081"/><polygon points="29.4,26 36.0,2 42.6,26" fill="#c6a081"/><polygon points="77.4,26 84.0,2 90.6,26" fill="#c6a081"/><polygon points="32.3,24 36.0,10 39.7,24" fill="#d5b393"/><polygon points="80.3,24 84.0,10 87.7,24" fill="#d5b393"/><ellipse cx="45" cy="64.0" rx="8.8" ry="11.8" fill="#f5f2ef"/><ellipse cx="75" cy="64.0" rx="8.8" ry="11.8" fill="#f5f2ef"/><circle cx="46" cy="66.0" r="5.9" fill="#3f2d20"/><circle cx="76" cy="66.0" r="5.9" fill="#3f2d20"/><ellipse cx="60" cy="92" rx="15.2" ry="12.9" fill="#caa078"/><ellipse cx="60" cy="92" rx="11.7" ry="7.7" fill="#caa078"/><ellipse cx="56.0" cy="92" rx="1.7" ry="2.6" fill="#83684e"/><ellipse cx="64.0" cy="92" rx="1.7" ry="2.6" fill="#83684e"/><path d="M49 19 Q60 5 71 19 Q66 37 60 31 Q54 37 49 19 Z" fill="#9c5a4a"/><clipPath id="shhorse1"><ellipse cx="60" cy="62" rx="40" ry="49"/></clipPath><polygon points="74,2 124,2 124,128 12,128" fill="#000" opacity="0.10" clip-path="url(#shhorse1)"/></g></svg>