<svg xmlns="http://www.w3.org/2000/svg" viewBox="0 0 120 140" width="120" height="140" role="img"><title>うま あかちゃん</title><g transform="translate(18.0,43.0) scale(0.7)"><ellipse cx="60" cy="62" rx="40" ry="49" fill="#d0b097"/><polygon points="30.4,26 36.0,2 41.6,26" fill="#d0b097"/><polygon points="78.4,26 84.0,2 89.6,26" fill="#d0b097"/><polygon points="32.9,24 36.0,10 39.1,24" fill="#dcc0a6"/><polygon points="80.9,24 84.0,10 87.1,24" fill="#dcc0a6"/><ellipse cx="45" cy="70.0" rx="10.1" ry="13.4" fill="#f5f2ef"/><ellipse cx="75" cy="70.0" rx="10.1" ry="13.4" fill="#f5f2ef"/><circle cx="46" cy="72.0" r="6.7" fill="#3f2d20"/><circle cx="76" cy="72.0" r="6.7" fill="#3f2d20"/><circle cx="43" cy="68.0" r="2.4" fill="#fff"/><circle cx="73" cy="68.0" r="2.4" fill="#fff"/><ellipse cx="60" cy="92" rx="11.6" ry="9.9" fill="#caa078"/><ellipse cx="60" cy="92" rx="10.4" ry="6.8" fill="#caa078"/><ellipse cx="56.4" cy="92" rx="1.7" ry="2.6" fill="#83684e"/><ellipse cx="63.6" cy="92" rx="1.7" ry="2.6" fill="#83684e"/><path d="M49 19 Q60 5 71 19 Q66 37 60 31 Q54 37 49 19 Z" fill="#9c5a4a"/><clipPath id="shhorse0"><ellipse cx="60" cy="62" rx="40" ry="49"/></clipPath><polygon points="74,2 124,2 124,128 12,128" fill="#000" opacity="0.10" clip-path="url(#shhorse0)"/></g></svg>