<svg xmlns="http://www.w3.org/2000/svg" viewBox="0 0 120 140" width="120" height="140" role="img"><title>うま おとな</title><g transform="translate(0.0,10.0) scale(1.0)"><ellipse cx="60" cy="62" rx="40" ry="49" fill="#b88862"/><polygon points="28.0,26 36.0,2 44.0,26" fill="#b88862"/><polygon points="76.0,26 84.0,2 92.0,26" fill="#b88862"/><polygon points="31.5,24 36.0,10 40.5,24" fill="#caa078"/><polygon points="79.5,24 84.0,10 88.5,24" fill="#caa078"/><ellipse cx="45" cy="54.0" rx="7.5" ry="10.0" fill="#f5f2ef"/><ellipse cx="75" cy="54.0" rx="7.5" ry="10.0" fill="#f5f2ef"/><circle cx="46" cy="56.0" r="5.0" fill="#3f2d20"/><circle cx="76" cy="56.0" r="5.0" fill="#3f2d20"/><ellipse cx="60" cy="92" rx="20.0" ry="17.0" fill="#caa078"/><ellipse cx="60" cy="92" rx="13.0" ry="8.5" fill="#caa078"/><ellipse cx="55.5" cy="92" rx="1.7" ry="2.6" fill="#83684e"/><ellipse cx="64.5" cy="92" rx="1.7" ry="2.6" fill="#83684e"/><path d="M49 19 Q60 5 71 19 Q66 37 60 31 Q54 37 49 19 Z" fill="#9c5a4a"/><clipPath id="shhorse3"><ellipse cx="60" cy="62" rx="40" ry="49"/></clipPath><polygon points="74,2 124,2 124,128 12,128" fill="#000" opacity="0.10" clip-path="url(#shhorse3)"/></g></svg>