<svg xmlns="http://www.w3.org/2000/svg" viewBox="0 0 120 140" width="120" height="140" role="img"><title>コアラ はかせ ★</title><g transform="translate(0.0,10.0) scale(1.0)"><ellipse cx="60" cy="64" rx="48" ry="46" fill="#b3bcc1"/><circle cx="22" cy="38" r="21.0" fill="#b3bcc1"/><circle cx="98" cy="38" r="21.0" fill="#b3bcc1"/><circle cx="22" cy="38" r="10.5" fill="#dde4e7"/><circle cx="98" cy="38" r="10.5" fill="#dde4e7"/><ellipse cx="42" cy="58.0" rx="7.0" ry="9.0" fill="#f5f2ef"/><ellipse cx="78" cy="58.0" rx="7.0" ry="9.0" fill="#f5f2ef"/><circle cx="43" cy="60.0" r="5.0" fill="#3f2d20"/><circle cx="79" cy="60.0" r="5.0" fill="#3f2d20"/><ellipse cx="60" cy="78" rx="11.0" ry="9.0" fill="#4c4a4a"/><clipPath id="shkoala4"><ellipse cx="60" cy="64" rx="48" ry="46"/></clipPath><polygon points="74,2 124,2 124,128 12,128" fill="#000" opacity="0.10" clip-path="url(#shkoala4)"/><circle cx="42" cy="58.0" r="11.5" stroke="#2b2b2b" stroke-width="2.4" fill="none"/><circle cx="78" cy="58.0" r="11.5" stroke="#2b2b2b" stroke-width="2.4" fill="none"/><path d="M53.5 58.0 L66.5 58.0" stroke="#2b2b2b" stroke-width="2.4" fill="none"/><polygon points="60,11 100,27 60,43 20,27" fill="#2b2b2b"/><ellipse cx="60" cy="32" rx="13" ry="6" fill="#2b2b2b"/><circle cx="60" cy="27" r="2.2" fill="#e0a93b"/><path d="M60 27 L86 31 L86 43" stroke="#e0a93b" stroke-width="2" fill="none"/><circle cx="86" cy="45" r="3" fill="#e0a93b"/><polygon points="13,58 15,63 20,65 15,67 13,72 11,67 6,65 11,63" fill="#e0a93b"/><polygon points="108,50 110,55 115,57 110,59 108,64 106,59 101,57 106,55" fill="#e0a93b"/></g></svg>