<svg xmlns="http://www.w3.org/2000/svg" viewBox="0 0 120 140" width="120" height="140" role="img"><title>ライオン わかもの</title><g transform="translate(6.0,21.0) scale(0.9)"><polygon points="60.0,0.6 72.4,28.0 98.5,13.1 92.4,42.5 122.2,45.8 100.0,66.0 122.2,86.2 92.4,89.5 98.5,118.9 72.4,104.0 60.0,131.4 47.6,104.0 21.5,118.9 27.6,89.5 -2.2,86.2 20.0,66.0 -2.2,45.8 27.6,42.5 21.5,13.1 47.6,28.0" fill="#946231"/><polygon points="60.0,4.6 73.0,26.1 96.1,16.3 94.0,41.3 118.4,47.0 102.0,66.0 118.4,85.0 94.0,90.7 96.1,115.7 73.0,105.9 60.0,127.4 47.0,105.9 23.9,115.7 26.0,90.7 1.6,85.0 18.0,66.0 1.6,47.0 26.0,41.3 23.9,16.3 47.0,26.1" fill="#a9743a"/><ellipse cx="60" cy="64" rx="44" ry="43" fill="#dcae66"/><circle cx="24" cy="30" r="11.2" fill="#dcae66"/><circle cx="96" cy="30" r="11.2" fill="#dcae66"/><circle cx="24" cy="30" r="5.6" fill="#cfa977"/><circle cx="96" cy="30" r="5.6" fill="#cfa977"/><ellipse cx="45" cy="61.0" rx="8.6" ry="10.8" fill="#f5f2ef"/><ellipse cx="75" cy="61.0" rx="8.6" ry="10.8" fill="#f5f2ef"/><circle cx="46" cy="63.0" r="5.4" fill="#3f2d20"/><circle cx="76" cy="63.0" r="5.4" fill="#3f2d20"/><ellipse cx="60" cy="83" rx="17.6" ry="12.3" fill="#f2ead9"/><ellipse cx="60" cy="77" rx="6.2" ry="4.3" fill="#5b4030"/><path d="M60 82 L60 88" stroke="#3f2d20" stroke-width="2" fill="none" stroke-linecap="round"/><path d="M49 91 Q60 98 71 91" stroke="#3f2d20" stroke-width="2" fill="none" stroke-linecap="round"/><clipPath id="shlion2"><ellipse cx="60" cy="64" rx="44" ry="43"/></clipPath><polygon points="74,2 124,2 124,128 12,128" fill="#000" opacity="0.10" clip-path="url(#shlion2)"/></g></svg>