<svg xmlns="http://www.w3.org/2000/svg" viewBox="0 0 120 140" width="120" height="140" role="img"><title>ライオン おとな</title><g transform="translate(0.0,10.0) scale(1.0)"><polygon points="60.0,-4.0 72.4,28.0 101.1,9.4 92.4,42.5 126.6,44.4 100.0,66.0 126.6,87.6 92.4,89.5 101.1,122.6 72.4,104.0 60.0,136.0 47.6,104.0 18.9,122.6 27.6,89.5 -6.6,87.6 20.0,66.0 -6.6,44.4 27.6,42.5 18.9,9.4 47.6,28.0" fill="#946231"/><polygon points="60.0,0.0 73.0,26.1 98.8,12.6 94.0,41.3 122.8,45.6 102.0,66.0 122.8,86.4 94.0,90.7 98.8,119.4 73.0,105.9 60.0,132.0 47.0,105.9 21.2,119.4 26.0,90.7 -2.8,86.4 18.0,66.0 -2.8,45.6 26.0,41.3 21.2,12.6 47.0,26.1" fill="#a9743a"/><ellipse cx="60" cy="64" rx="44" ry="43" fill="#d8a657"/><circle cx="24" cy="30" r="12.0" fill="#d8a657"/><circle cx="96" cy="30" r="12.0" fill="#d8a657"/><circle cx="24" cy="30" r="6.0" fill="#caa06a"/><circle cx="96" cy="30" r="6.0" fill="#caa06a"/><ellipse cx="45" cy="56.0" rx="8.0" ry="10.0" fill="#f5f2ef"/><ellipse cx="75" cy="56.0" rx="8.0" ry="10.0" fill="#f5f2ef"/><circle cx="46" cy="58.0" r="5.0" fill="#3f2d20"/><circle cx="76" cy="58.0" r="5.0" fill="#3f2d20"/><ellipse cx="60" cy="83" rx="20.0" ry="14.0" fill="#f2ead9"/><ellipse cx="60" cy="77" rx="6.5" ry="4.5" fill="#5b4030"/><path d="M60 82 L60 88" stroke="#3f2d20" stroke-width="2" fill="none" stroke-linecap="round"/><path d="M49 91 Q60 98 71 91" stroke="#3f2d20" stroke-width="2" fill="none" stroke-linecap="round"/><clipPath id="shlion3"><ellipse cx="60" cy="64" rx="44" ry="43"/></clipPath><polygon points="74,2 124,2 124,128 12,128" fill="#000" opacity="0.10" clip-path="url(#shlion3)"/></g></svg>