<svg xmlns="http://www.w3.org/2000/svg" viewBox="0 0 120 140" width="120" height="140" role="img"><title>ライオン こども</title><g transform="translate(12.0,32.0) scale(0.8)"><polygon points="60.0,4.4 72.4,28.0 96.2,16.2 92.4,42.5 118.6,47.0 100.0,66.0 118.6,85.0 92.4,89.5 96.2,115.8 72.4,104.0 60.0,127.6 47.6,104.0 23.8,115.8 27.6,89.5 1.4,85.0 20.0,66.0 1.4,47.0 27.6,42.5 23.8,16.2 47.6,28.0" fill="#946231"/><polygon points="60.0,8.4 73.0,26.1 93.9,19.4 94.0,41.3 114.8,48.2 102.0,66.0 114.8,83.8 94.0,90.7 93.9,112.6 73.0,105.9 60.0,123.6 47.0,105.9 26.1,112.6 26.0,90.7 5.2,83.8 18.0,66.0 5.2,48.2 26.0,41.3 26.1,19.4 47.0,26.1" fill="#a9743a"/><ellipse cx="60" cy="64" rx="44" ry="43" fill="#e0b879"/><circle cx="24" cy="30" r="10.0" fill="#e0b879"/><circle cx="96" cy="30" r="10.0" fill="#e0b879"/><circle cx="24" cy="30" r="5.0" fill="#d5b388"/><circle cx="96" cy="30" r="5.0" fill="#d5b388"/><ellipse cx="45" cy="66.0" rx="9.4" ry="11.8" fill="#f5f2ef"/><ellipse cx="75" cy="66.0" rx="9.4" ry="11.8" fill="#f5f2ef"/><circle cx="46" cy="68.0" r="5.9" fill="#3f2d20"/><circle cx="76" cy="68.0" r="5.9" fill="#3f2d20"/><ellipse cx="60" cy="83" rx="15.2" ry="10.6" fill="#f2ead9"/><ellipse cx="60" cy="77" rx="5.9" ry="4.0" fill="#5b4030"/><path d="M60 82 L60 88" stroke="#3f2d20" stroke-width="2" fill="none" stroke-linecap="round"/><path d="M49 91 Q60 98 71 91" stroke="#3f2d20" stroke-width="2" fill="none" stroke-linecap="round"/><clipPath id="shlion1"><ellipse cx="60" cy="64" rx="44" ry="43"/></clipPath><polygon points="74,2 124,2 124,128 12,128" fill="#000" opacity="0.10" clip-path="url(#shlion1)"/></g></svg>