<svg xmlns="http://www.w3.org/2000/svg" viewBox="0 0 120 140" width="120" height="140" role="img"><title>ライオン あかちゃん</title><g transform="translate(18.0,43.0) scale(0.7)"><ellipse cx="60" cy="64" rx="44" ry="43" fill="#e5c490"/><circle cx="24" cy="30" r="8.4" fill="#e5c490"/><circle cx="96" cy="30" r="8.4" fill="#e5c490"/><circle cx="24" cy="30" r="4.2" fill="#dcc09d"/><circle cx="96" cy="30" r="4.2" fill="#dcc09d"/><ellipse cx="45" cy="72.0" rx="10.7" ry="13.4" fill="#f5f2ef"/><ellipse cx="75" cy="72.0" rx="10.7" ry="13.4" fill="#f5f2ef"/><circle cx="46" cy="74.0" r="6.7" fill="#3f2d20"/><circle cx="76" cy="74.0" r="6.7" fill="#3f2d20"/><circle cx="43" cy="70.0" r="2.6" fill="#fff"/><circle cx="73" cy="70.0" r="2.6" fill="#fff"/><ellipse cx="60" cy="83" rx="11.6" ry="8.1" fill="#f2ead9"/><ellipse cx="60" cy="77" rx="5.2" ry="3.6" fill="#5b4030"/><path d="M60 82 L60 88" stroke="#3f2d20" stroke-width="2" fill="none" stroke-linecap="round"/><path d="M49 91 Q60 98 71 91" stroke="#3f2d20" stroke-width="2" fill="none" stroke-linecap="round"/><clipPath id="shlion0"><ellipse cx="60" cy="64" rx="44" ry="43"/></clipPath><polygon points="74,2 124,2 124,128 12,128" fill="#000" opacity="0.10" clip-path="url(#shlion0)"/></g></svg>