<svg xmlns="http://www.w3.org/2000/svg" viewBox="0 0 120 140" width="120" height="140" role="img"><title>さる こども</title><g transform="translate(12.0,32.0) scale(0.8)"><ellipse cx="60" cy="64" rx="48" ry="46" fill="#ba9472"/><circle cx="13" cy="62" r="10.8" fill="#ba9472"/><circle cx="107" cy="62" r="10.8" fill="#ba9472"/><circle cx="13" cy="62" r="5.4" fill="#ebd2b1"/><circle cx="107" cy="62" r="5.4" fill="#ebd2b1"/><ellipse cx="60" cy="68.0" rx="24.3" ry="24.3" fill="#ebd2b1"/><ellipse cx="46" cy="68.0" rx="8.8" ry="11.2" fill="#f5f2ef"/><ellipse cx="74" cy="68.0" rx="8.8" ry="11.2" fill="#f5f2ef"/><circle cx="47" cy="70.0" r="5.9" fill="#3f2d20"/><circle cx="75" cy="70.0" r="5.9" fill="#3f2d20"/><path d="M60 83 L60 89" stroke="#3f2d20" stroke-width="2" fill="none" stroke-linecap="round"/><path d="M49 92 Q60 99 71 92" stroke="#3f2d20" stroke-width="2" fill="none" stroke-linecap="round"/><ellipse cx="56.5" cy="78" rx="1.6" ry="2.2" fill="#5b4636"/><ellipse cx="63.5" cy="78" rx="1.6" ry="2.2" fill="#5b4636"/><clipPath id="shmonkey1"><ellipse cx="60" cy="64" rx="48" ry="46"/></clipPath><polygon points="74,2 124,2 124,128 12,128" fill="#000" opacity="0.10" clip-path="url(#shmonkey1)"/></g></svg>