<svg xmlns="http://www.w3.org/2000/svg" viewBox="0 0 120 140" width="120" height="140" role="img"><title>さる あかちゃん</title><g transform="translate(18.0,43.0) scale(0.7)"><ellipse cx="60" cy="64" rx="48" ry="46" fill="#c6a78b"/><circle cx="13" cy="62" r="9.1" fill="#c6a78b"/><circle cx="107" cy="62" r="9.1" fill="#c6a78b"/><circle cx="13" cy="62" r="4.5" fill="#eedabf"/><circle cx="107" cy="62" r="4.5" fill="#eedabf"/><ellipse cx="60" cy="74.0" rx="22.1" ry="22.1" fill="#eedabf"/><ellipse cx="46" cy="74.0" rx="10.1" ry="12.7" fill="#f5f2ef"/><ellipse cx="74" cy="74.0" rx="10.1" ry="12.7" fill="#f5f2ef"/><circle cx="47" cy="76.0" r="6.7" fill="#3f2d20"/><circle cx="75" cy="76.0" r="6.7" fill="#3f2d20"/><circle cx="44" cy="72.0" r="2.4" fill="#fff"/><circle cx="72" cy="72.0" r="2.4" fill="#fff"/><path d="M60 83 L60 89" stroke="#3f2d20" stroke-width="2" fill="none" stroke-linecap="round"/><path d="M49 92 Q60 99 71 92" stroke="#3f2d20" stroke-width="2" fill="none" stroke-linecap="round"/><ellipse cx="56.5" cy="78" rx="1.6" ry="2.2" fill="#5b4636"/><ellipse cx="63.5" cy="78" rx="1.6" ry="2.2" fill="#5b4636"/><clipPath id="shmonkey0"><ellipse cx="60" cy="64" rx="48" ry="46"/></clipPath><polygon points="74,2 124,2 124,128 12,128" fill="#000" opacity="0.10" clip-path="url(#shmonkey0)"/></g></svg>