<svg xmlns="http://www.w3.org/2000/svg" viewBox="0 0 120 140" width="120" height="140" role="img"><title>さる わかもの</title><g transform="translate(6.0,21.0) scale(0.9)"><ellipse cx="60" cy="64" rx="48" ry="46" fill="#b1855f"/><circle cx="13" cy="62" r="12.1" fill="#b1855f"/><circle cx="107" cy="62" r="12.1" fill="#b1855f"/><circle cx="13" cy="62" r="6.0" fill="#e8cca7"/><circle cx="107" cy="62" r="6.0" fill="#e8cca7"/><ellipse cx="60" cy="63.0" rx="25.9" ry="25.9" fill="#e8cca7"/><ellipse cx="46" cy="63.0" rx="8.1" ry="10.3" fill="#f5f2ef"/><ellipse cx="74" cy="63.0" rx="8.1" ry="10.3" fill="#f5f2ef"/><circle cx="47" cy="65.0" r="5.4" fill="#3f2d20"/><circle cx="75" cy="65.0" r="5.4" fill="#3f2d20"/><path d="M60 83 L60 89" stroke="#3f2d20" stroke-width="2" fill="none" stroke-linecap="round"/><path d="M49 92 Q60 99 71 92" stroke="#3f2d20" stroke-width="2" fill="none" stroke-linecap="round"/><ellipse cx="56.5" cy="78" rx="1.6" ry="2.2" fill="#5b4636"/><ellipse cx="63.5" cy="78" rx="1.6" ry="2.2" fill="#5b4636"/><clipPath id="shmonkey2"><ellipse cx="60" cy="64" rx="48" ry="46"/></clipPath><polygon points="74,2 124,2 124,128 12,128" fill="#000" opacity="0.10" clip-path="url(#shmonkey2)"/></g></svg>