<svg xmlns="http://www.w3.org/2000/svg" viewBox="0 0 120 140" width="120" height="140" role="img"><title>さる はかせ ★</title><g transform="translate(0.0,10.0) scale(1.0)"><ellipse cx="60" cy="64" rx="48" ry="46" fill="#a9794f"/><circle cx="13" cy="62" r="13.0" fill="#a9794f"/><circle cx="107" cy="62" r="13.0" fill="#a9794f"/><circle cx="13" cy="62" r="6.5" fill="#e6c79e"/><circle cx="107" cy="62" r="6.5" fill="#e6c79e"/><ellipse cx="60" cy="58.0" rx="27.0" ry="27.0" fill="#e6c79e"/><ellipse cx="46" cy="58.0" rx="7.5" ry="9.5" fill="#f5f2ef"/><ellipse cx="74" cy="58.0" rx="7.5" ry="9.5" fill="#f5f2ef"/><circle cx="47" cy="60.0" r="5.0" fill="#3f2d20"/><circle cx="75" cy="60.0" r="5.0" fill="#3f2d20"/><path d="M60 83 L60 89" stroke="#3f2d20" stroke-width="2" fill="none" stroke-linecap="round"/><path d="M49 92 Q60 99 71 92" stroke="#3f2d20" stroke-width="2" fill="none" stroke-linecap="round"/><ellipse cx="56.5" cy="78" rx="1.6" ry="2.2" fill="#5b4636"/><ellipse cx="63.5" cy="78" rx="1.6" ry="2.2" fill="#5b4636"/><clipPath id="shmonkey4"><ellipse cx="60" cy="64" rx="48" ry="46"/></clipPath><polygon points="74,2 124,2 124,128 12,128" fill="#000" opacity="0.10" clip-path="url(#shmonkey4)"/><circle cx="46" cy="58.0" r="12.0" stroke="#2b2b2b" stroke-width="2.4" fill="none"/><circle cx="74" cy="58.0" r="12.0" stroke="#2b2b2b" stroke-width="2.4" fill="none"/><path d="M58.0 58.0 L62.0 58.0" stroke="#2b2b2b" stroke-width="2.4" fill="none"/><polygon points="60,11 100,27 60,43 20,27" fill="#2b2b2b"/><ellipse cx="60" cy="32" rx="13" ry="6" fill="#2b2b2b"/><circle cx="60" cy="27" r="2.2" fill="#e0a93b"/><path d="M60 27 L86 31 L86 43" stroke="#e0a93b" stroke-width="2" fill="none"/><circle cx="86" cy="45" r="3" fill="#e0a93b"/><polygon points="13,58 15,63 20,65 15,67 13,72 11,67 6,65 11,63" fill="#e0a93b"/><polygon points="108,50 110,55 115,57 110,59 108,64 106,59 101,57 106,55" fill="#e0a93b"/></g></svg>