<svg xmlns="http://www.w3.org/2000/svg" viewBox="0 0 120 140" width="120" height="140" role="img"><title>ねずみ わかもの</title><g transform="translate(6.0,21.0) scale(0.9)"><ellipse cx="60" cy="64" rx="46" ry="44" fill="#bab3ae"/><circle cx="30" cy="26" r="17.7" fill="#bab3ae"/><circle cx="90" cy="26" r="17.7" fill="#bab3ae"/><circle cx="30" cy="26" r="8.8" fill="#f1cbd2"/><circle cx="90" cy="26" r="8.8" fill="#f1cbd2"/><ellipse cx="45" cy="62.0" rx="8.1" ry="10.3" fill="#f5f2ef"/><ellipse cx="75" cy="62.0" rx="8.1" ry="10.3" fill="#f5f2ef"/><circle cx="46" cy="64.0" r="5.4" fill="#3f2d20"/><circle cx="76" cy="64.0" r="5.4" fill="#3f2d20"/><ellipse cx="60" cy="80" rx="12.3" ry="8.8" fill="#efeae4"/><path d="M56.0 74 L64.0 74 Q60 80 60 80 Z" fill="#e0899a"/><path d="M68 79 L90 76" stroke="#cfc6bd" stroke-width="1.2" fill="none"/><path d="M68 82 L90 83" stroke="#cfc6bd" stroke-width="1.2" fill="none"/><path d="M52 79 L30 76" stroke="#cfc6bd" stroke-width="1.2" fill="none"/><path d="M52 82 L30 83" stroke="#cfc6bd" stroke-width="1.2" fill="none"/><clipPath id="shmouse2"><ellipse cx="60" cy="64" rx="46" ry="44"/></clipPath><polygon points="74,2 124,2 124,128 12,128" fill="#000" opacity="0.10" clip-path="url(#shmouse2)"/></g></svg>