<svg xmlns="http://www.w3.org/2000/svg" viewBox="0 0 120 140" width="120" height="140" role="img"><title>ねずみ おとな</title><g transform="translate(0.0,10.0) scale(1.0)"><ellipse cx="60" cy="64" rx="46" ry="44" fill="#b3aca6"/><circle cx="30" cy="26" r="19.0" fill="#b3aca6"/><circle cx="90" cy="26" r="19.0" fill="#b3aca6"/><circle cx="30" cy="26" r="9.5" fill="#f0c6cd"/><circle cx="90" cy="26" r="9.5" fill="#f0c6cd"/><ellipse cx="45" cy="57.0" rx="7.5" ry="9.5" fill="#f5f2ef"/><ellipse cx="75" cy="57.0" rx="7.5" ry="9.5" fill="#f5f2ef"/><circle cx="46" cy="59.0" r="5.0" fill="#3f2d20"/><circle cx="76" cy="59.0" r="5.0" fill="#3f2d20"/><ellipse cx="60" cy="80" rx="14.0" ry="10.0" fill="#efeae4"/><path d="M55.8 74 L64.2 74 Q60 80 60 80 Z" fill="#e0899a"/><path d="M68 79 L90 76" stroke="#cfc6bd" stroke-width="1.2" fill="none"/><path d="M68 82 L90 83" stroke="#cfc6bd" stroke-width="1.2" fill="none"/><path d="M52 79 L30 76" stroke="#cfc6bd" stroke-width="1.2" fill="none"/><path d="M52 82 L30 83" stroke="#cfc6bd" stroke-width="1.2" fill="none"/><clipPath id="shmouse3"><ellipse cx="60" cy="64" rx="46" ry="44"/></clipPath><polygon points="74,2 124,2 124,128 12,128" fill="#000" opacity="0.10" clip-path="url(#shmouse3)"/></g></svg>