<svg xmlns="http://www.w3.org/2000/svg" viewBox="0 0 120 140" width="120" height="140" role="img"><title>ねずみ あかちゃん</title><g transform="translate(18.0,43.0) scale(0.7)"><ellipse cx="60" cy="64" rx="46" ry="44" fill="#cdc8c4"/><circle cx="30" cy="26" r="13.3" fill="#cdc8c4"/><circle cx="90" cy="26" r="13.3" fill="#cdc8c4"/><circle cx="30" cy="26" r="6.6" fill="#f5d9de"/><circle cx="90" cy="26" r="6.6" fill="#f5d9de"/><ellipse cx="45" cy="73.0" rx="10.1" ry="12.7" fill="#f5f2ef"/><ellipse cx="75" cy="73.0" rx="10.1" ry="12.7" fill="#f5f2ef"/><circle cx="46" cy="75.0" r="6.7" fill="#3f2d20"/><circle cx="76" cy="75.0" r="6.7" fill="#3f2d20"/><circle cx="43" cy="71.0" r="2.4" fill="#fff"/><circle cx="73" cy="71.0" r="2.4" fill="#fff"/><ellipse cx="60" cy="80" rx="8.1" ry="5.8" fill="#efeae4"/><path d="M56.6 74 L63.4 74 Q60 80 60 80 Z" fill="#e0899a"/><path d="M68 79 L90 76" stroke="#cfc6bd" stroke-width="1.2" fill="none"/><path d="M68 82 L90 83" stroke="#cfc6bd" stroke-width="1.2" fill="none"/><path d="M52 79 L30 76" stroke="#cfc6bd" stroke-width="1.2" fill="none"/><path d="M52 82 L30 83" stroke="#cfc6bd" stroke-width="1.2" fill="none"/><clipPath id="shmouse0"><ellipse cx="60" cy="64" rx="46" ry="44"/></clipPath><polygon points="74,2 124,2 124,128 12,128" fill="#000" opacity="0.10" clip-path="url(#shmouse0)"/></g></svg>