<svg xmlns="http://www.w3.org/2000/svg" viewBox="0 0 120 140" width="120" height="140" role="img"><title>ねずみ はかせ ★</title><g transform="translate(0.0,10.0) scale(1.0)"><ellipse cx="60" cy="64" rx="46" ry="44" fill="#b3aca6"/><circle cx="30" cy="26" r="19.0" fill="#b3aca6"/><circle cx="90" cy="26" r="19.0" fill="#b3aca6"/><circle cx="30" cy="26" r="9.5" fill="#f0c6cd"/><circle cx="90" cy="26" r="9.5" fill="#f0c6cd"/><ellipse cx="45" cy="57.0" rx="7.5" ry="9.5" fill="#f5f2ef"/><ellipse cx="75" cy="57.0" rx="7.5" ry="9.5" fill="#f5f2ef"/><circle cx="46" cy="59.0" r="5.0" fill="#3f2d20"/><circle cx="76" cy="59.0" r="5.0" fill="#3f2d20"/><ellipse cx="60" cy="80" rx="14.0" ry="10.0" fill="#efeae4"/><path d="M55.8 74 L64.2 74 Q60 80 60 80 Z" fill="#e0899a"/><path d="M68 79 L90 76" stroke="#cfc6bd" stroke-width="1.2" fill="none"/><path d="M68 82 L90 83" stroke="#cfc6bd" stroke-width="1.2" fill="none"/><path d="M52 79 L30 76" stroke="#cfc6bd" stroke-width="1.2" fill="none"/><path d="M52 82 L30 83" stroke="#cfc6bd" stroke-width="1.2" fill="none"/><clipPath id="shmouse4"><ellipse cx="60" cy="64" rx="46" ry="44"/></clipPath><polygon points="74,2 124,2 124,128 12,128" fill="#000" opacity="0.10" clip-path="url(#shmouse4)"/><circle cx="45" cy="57.0" r="12.0" stroke="#2b2b2b" stroke-width="2.4" fill="none"/><circle cx="75" cy="57.0" r="12.0" stroke="#2b2b2b" stroke-width="2.4" fill="none"/><path d="M57.0 57.0 L63.0 57.0" stroke="#2b2b2b" stroke-width="2.4" fill="none"/><polygon points="60,13 100,29 60,45 20,29" fill="#2b2b2b"/><ellipse cx="60" cy="34" rx="13" ry="6" fill="#2b2b2b"/><circle cx="60" cy="29" r="2.2" fill="#e0a93b"/><path d="M60 29 L86 33 L86 45" stroke="#e0a93b" stroke-width="2" fill="none"/><circle cx="86" cy="47" r="3" fill="#e0a93b"/><polygon points="13,57 15,62 20,64 15,66 13,71 11,66 6,64 11,62" fill="#e0a93b"/><polygon points="108,49 110,54 115,56 110,58 108,63 106,58 101,56 106,54" fill="#e0a93b"/></g></svg>