<svg xmlns="http://www.w3.org/2000/svg" viewBox="0 0 120 140" width="120" height="140" role="img"><title>ねずみ こども</title><g transform="translate(12.0,32.0) scale(0.8)"><ellipse cx="60" cy="64" rx="46" ry="44" fill="#c2bdb8"/><circle cx="30" cy="26" r="15.8" fill="#c2bdb8"/><circle cx="90" cy="26" r="15.8" fill="#c2bdb8"/><circle cx="30" cy="26" r="7.9" fill="#f3d1d7"/><circle cx="90" cy="26" r="7.9" fill="#f3d1d7"/><ellipse cx="45" cy="67.0" rx="8.8" ry="11.2" fill="#f5f2ef"/><ellipse cx="75" cy="67.0" rx="8.8" ry="11.2" fill="#f5f2ef"/><circle cx="46" cy="69.0" r="5.9" fill="#3f2d20"/><circle cx="76" cy="69.0" r="5.9" fill="#3f2d20"/><ellipse cx="60" cy="80" rx="10.6" ry="7.6" fill="#efeae4"/><path d="M56.2 74 L63.8 74 Q60 80 60 80 Z" fill="#e0899a"/><path d="M68 79 L90 76" stroke="#cfc6bd" stroke-width="1.2" fill="none"/><path d="M68 82 L90 83" stroke="#cfc6bd" stroke-width="1.2" fill="none"/><path d="M52 79 L30 76" stroke="#cfc6bd" stroke-width="1.2" fill="none"/><path d="M52 82 L30 83" stroke="#cfc6bd" stroke-width="1.2" fill="none"/><clipPath id="shmouse1"><ellipse cx="60" cy="64" rx="46" ry="44"/></clipPath><polygon points="74,2 124,2 124,128 12,128" fill="#000" opacity="0.10" clip-path="url(#shmouse1)"/></g></svg>