<svg xmlns="http://www.w3.org/2000/svg" viewBox="0 0 120 140" width="120" height="140" role="img"><title>パンダ あかちゃん</title><g transform="translate(18.0,43.0) scale(0.7)"><ellipse cx="60" cy="64" rx="50" ry="46" fill="#f8f6f2"/><circle cx="26" cy="28" r="11.9" fill="#2c2c2c"/><circle cx="94" cy="28" r="11.9" fill="#2c2c2c"/><circle cx="26" cy="28" r="5.9" fill="#747474"/><circle cx="94" cy="28" r="5.9" fill="#747474"/><g transform="rotate(22 42 72.0)"><ellipse cx="42" cy="72.0" rx="9.8" ry="12.3" fill="#2c2c2c"/></g><g transform="rotate(-22 78 72.0)"><ellipse cx="78" cy="72.0" rx="9.8" ry="12.3" fill="#2c2c2c"/></g><ellipse cx="42" cy="72.0" rx="8.7" ry="10.7" fill="#f5f2ef"/><ellipse cx="78" cy="72.0" rx="8.7" ry="10.7" fill="#f5f2ef"/><circle cx="43" cy="74.0" r="6.0" fill="#3f2d20"/><circle cx="79" cy="74.0" r="6.0" fill="#3f2d20"/><circle cx="40" cy="70.0" r="2.1" fill="#fff"/><circle cx="76" cy="70.0" r="2.1" fill="#fff"/><ellipse cx="60" cy="77" rx="5.2" ry="3.6" fill="#2c2c2c"/><path d="M60 82 L60 88" stroke="#3f2d20" stroke-width="2" fill="none" stroke-linecap="round"/><path d="M49 91 Q60 98 71 91" stroke="#3f2d20" stroke-width="2" fill="none" stroke-linecap="round"/><clipPath id="shpanda0"><ellipse cx="60" cy="64" rx="50" ry="46"/></clipPath><polygon points="74,2 124,2 124,128 12,128" fill="#000" opacity="0.10" clip-path="url(#shpanda0)"/></g></svg>