<svg xmlns="http://www.w3.org/2000/svg" viewBox="0 0 120 140" width="120" height="140" role="img"><title>パンダ おとな</title><g transform="translate(0.0,10.0) scale(1.0)"><ellipse cx="60" cy="64" rx="50" ry="46" fill="#f5f1ec"/><circle cx="26" cy="28" r="17.0" fill="#2c2c2c"/><circle cx="94" cy="28" r="17.0" fill="#2c2c2c"/><circle cx="26" cy="28" r="8.5" fill="#2c2c2c"/><circle cx="94" cy="28" r="8.5" fill="#2c2c2c"/><g transform="rotate(22 42 56.0)"><ellipse cx="42" cy="56.0" rx="12.0" ry="15.0" fill="#2c2c2c"/></g><g transform="rotate(-22 78 56.0)"><ellipse cx="78" cy="56.0" rx="12.0" ry="15.0" fill="#2c2c2c"/></g><ellipse cx="42" cy="56.0" rx="6.5" ry="8.0" fill="#f5f2ef"/><ellipse cx="78" cy="56.0" rx="6.5" ry="8.0" fill="#f5f2ef"/><circle cx="43" cy="58.0" r="4.5" fill="#3f2d20"/><circle cx="79" cy="58.0" r="4.5" fill="#3f2d20"/><ellipse cx="60" cy="77" rx="6.5" ry="4.5" fill="#2c2c2c"/><path d="M60 82 L60 88" stroke="#3f2d20" stroke-width="2" fill="none" stroke-linecap="round"/><path d="M49 91 Q60 98 71 91" stroke="#3f2d20" stroke-width="2" fill="none" stroke-linecap="round"/><clipPath id="shpanda3"><ellipse cx="60" cy="64" rx="50" ry="46"/></clipPath><polygon points="74,2 124,2 124,128 12,128" fill="#000" opacity="0.10" clip-path="url(#shpanda3)"/></g></svg>