<svg xmlns="http://www.w3.org/2000/svg" viewBox="0 0 120 140" width="120" height="140" role="img"><title>パンダ わかもの</title><g transform="translate(6.0,21.0) scale(0.9)"><ellipse cx="60" cy="64" rx="50" ry="46" fill="#f6f2ee"/><circle cx="26" cy="28" r="15.8" fill="#2c2c2c"/><circle cx="94" cy="28" r="15.8" fill="#2c2c2c"/><circle cx="26" cy="28" r="7.9" fill="#3f3f3f"/><circle cx="94" cy="28" r="7.9" fill="#3f3f3f"/><g transform="rotate(22 42 61.0)"><ellipse cx="42" cy="61.0" rx="11.5" ry="14.4" fill="#2c2c2c"/></g><g transform="rotate(-22 78 61.0)"><ellipse cx="78" cy="61.0" rx="11.5" ry="14.4" fill="#2c2c2c"/></g><ellipse cx="42" cy="61.0" rx="7.0" ry="8.6" fill="#f5f2ef"/><ellipse cx="78" cy="61.0" rx="7.0" ry="8.6" fill="#f5f2ef"/><circle cx="43" cy="63.0" r="4.9" fill="#3f2d20"/><circle cx="79" cy="63.0" r="4.9" fill="#3f2d20"/><ellipse cx="60" cy="77" rx="6.2" ry="4.3" fill="#2c2c2c"/><path d="M60 82 L60 88" stroke="#3f2d20" stroke-width="2" fill="none" stroke-linecap="round"/><path d="M49 91 Q60 98 71 91" stroke="#3f2d20" stroke-width="2" fill="none" stroke-linecap="round"/><clipPath id="shpanda2"><ellipse cx="60" cy="64" rx="50" ry="46"/></clipPath><polygon points="74,2 124,2 124,128 12,128" fill="#000" opacity="0.10" clip-path="url(#shpanda2)"/></g></svg>