<svg xmlns="http://www.w3.org/2000/svg" viewBox="0 0 120 140" width="120" height="140" role="img"><title>パンダ こども</title><g transform="translate(12.0,32.0) scale(0.8)"><ellipse cx="60" cy="64" rx="50" ry="46" fill="#f7f4f0"/><circle cx="26" cy="28" r="14.1" fill="#2c2c2c"/><circle cx="94" cy="28" r="14.1" fill="#2c2c2c"/><circle cx="26" cy="28" r="7.1" fill="#565656"/><circle cx="94" cy="28" r="7.1" fill="#565656"/><g transform="rotate(22 42 66.0)"><ellipse cx="42" cy="66.0" rx="10.8" ry="13.5" fill="#2c2c2c"/></g><g transform="rotate(-22 78 66.0)"><ellipse cx="78" cy="66.0" rx="10.8" ry="13.5" fill="#2c2c2c"/></g><ellipse cx="42" cy="66.0" rx="7.7" ry="9.4" fill="#f5f2ef"/><ellipse cx="78" cy="66.0" rx="7.7" ry="9.4" fill="#f5f2ef"/><circle cx="43" cy="68.0" r="5.3" fill="#3f2d20"/><circle cx="79" cy="68.0" r="5.3" fill="#3f2d20"/><ellipse cx="60" cy="77" rx="5.9" ry="4.0" fill="#2c2c2c"/><path d="M60 82 L60 88" stroke="#3f2d20" stroke-width="2" fill="none" stroke-linecap="round"/><path d="M49 91 Q60 98 71 91" stroke="#3f2d20" stroke-width="2" fill="none" stroke-linecap="round"/><clipPath id="shpanda1"><ellipse cx="60" cy="64" rx="50" ry="46"/></clipPath><polygon points="74,2 124,2 124,128 12,128" fill="#000" opacity="0.10" clip-path="url(#shpanda1)"/></g></svg>