<svg xmlns="http://www.w3.org/2000/svg" viewBox="0 0 120 140" width="120" height="140" role="img"><title>ぶた あかちゃん</title><g transform="translate(18.0,43.0) scale(0.7)"><ellipse cx="60" cy="64" rx="48" ry="45" fill="#f5cbce"/><polygon points="19.6,30 28.0,6 36.4,30" fill="#f5cbce"/><polygon points="83.6,30 92.0,6 100.4,30" fill="#f5cbce"/><polygon points="23.3,28 28.0,14 32.7,28" fill="#efbcc0"/><polygon points="87.3,28 92.0,14 96.7,28" fill="#efbcc0"/><ellipse cx="43" cy="72.0" rx="10.1" ry="12.7" fill="#f5f2ef"/><ellipse cx="77" cy="72.0" rx="10.1" ry="12.7" fill="#f5f2ef"/><circle cx="44" cy="74.0" r="6.7" fill="#3f2d20"/><circle cx="78" cy="74.0" r="6.7" fill="#3f2d20"/><circle cx="41" cy="70.0" r="2.4" fill="#fff"/><circle cx="75" cy="70.0" r="2.4" fill="#fff"/><ellipse cx="60" cy="80" rx="10.4" ry="6.8" fill="#e79aa0"/><ellipse cx="56.4" cy="80" rx="1.7" ry="2.6" fill="#966468"/><ellipse cx="63.6" cy="80" rx="1.7" ry="2.6" fill="#966468"/><clipPath id="shpig0"><ellipse cx="60" cy="64" rx="48" ry="45"/></clipPath><polygon points="74,2 124,2 124,128 12,128" fill="#000" opacity="0.10" clip-path="url(#shpig0)"/></g></svg>