<svg xmlns="http://www.w3.org/2000/svg" viewBox="0 0 120 140" width="120" height="140" role="img"><title>ぶた こども</title><g transform="translate(12.0,32.0) scale(0.8)"><ellipse cx="60" cy="64" rx="48" ry="45" fill="#f3c0c3"/><polygon points="18.0,30 28.0,6 38.0,30" fill="#f3c0c3"/><polygon points="82.0,30 92.0,6 102.0,30" fill="#f3c0c3"/><polygon points="22.4,28 28.0,14 33.6,28" fill="#ecaeb3"/><polygon points="86.4,28 92.0,14 97.6,28" fill="#ecaeb3"/><ellipse cx="43" cy="66.0" rx="8.8" ry="11.2" fill="#f5f2ef"/><ellipse cx="77" cy="66.0" rx="8.8" ry="11.2" fill="#f5f2ef"/><circle cx="44" cy="68.0" r="5.9" fill="#3f2d20"/><circle cx="78" cy="68.0" r="5.9" fill="#3f2d20"/><ellipse cx="60" cy="80" rx="11.7" ry="7.7" fill="#e79aa0"/><ellipse cx="56.0" cy="80" rx="1.7" ry="2.6" fill="#966468"/><ellipse cx="64.0" cy="80" rx="1.7" ry="2.6" fill="#966468"/><clipPath id="shpig1"><ellipse cx="60" cy="64" rx="48" ry="45"/></clipPath><polygon points="74,2 124,2 124,128 12,128" fill="#000" opacity="0.10" clip-path="url(#shpig1)"/></g></svg>