<svg xmlns="http://www.w3.org/2000/svg" viewBox="0 0 120 140" width="120" height="140" role="img"><title>ぶた わかもの</title><g transform="translate(6.0,21.0) scale(0.9)"><ellipse cx="60" cy="64" rx="48" ry="45" fill="#f1b7bb"/><polygon points="16.8,30 28.0,6 39.2,30" fill="#f1b7bb"/><polygon points="80.8,30 92.0,6 103.2,30" fill="#f1b7bb"/><polygon points="21.8,28 28.0,14 34.2,28" fill="#e9a3a9"/><polygon points="85.8,28 92.0,14 98.2,28" fill="#e9a3a9"/><ellipse cx="43" cy="61.0" rx="8.1" ry="10.3" fill="#f5f2ef"/><ellipse cx="77" cy="61.0" rx="8.1" ry="10.3" fill="#f5f2ef"/><circle cx="44" cy="63.0" r="5.4" fill="#3f2d20"/><circle cx="78" cy="63.0" r="5.4" fill="#3f2d20"/><ellipse cx="60" cy="80" rx="12.5" ry="8.2" fill="#e79aa0"/><ellipse cx="55.7" cy="80" rx="1.7" ry="2.6" fill="#966468"/><ellipse cx="64.3" cy="80" rx="1.7" ry="2.6" fill="#966468"/><clipPath id="shpig2"><ellipse cx="60" cy="64" rx="48" ry="45"/></clipPath><polygon points="74,2 124,2 124,128 12,128" fill="#000" opacity="0.10" clip-path="url(#shpig2)"/></g></svg>