<svg xmlns="http://www.w3.org/2000/svg" viewBox="0 0 120 140" width="120" height="140" role="img"><title>ぶた おとな</title><g transform="translate(0.0,10.0) scale(1.0)"><ellipse cx="60" cy="64" rx="48" ry="45" fill="#f0b0b4"/><polygon points="16.0,30 28.0,6 40.0,30" fill="#f0b0b4"/><polygon points="80.0,30 92.0,6 104.0,30" fill="#f0b0b4"/><polygon points="21.3,28 28.0,14 34.7,28" fill="#e79aa0"/><polygon points="85.3,28 92.0,14 98.7,28" fill="#e79aa0"/><ellipse cx="43" cy="56.0" rx="7.5" ry="9.5" fill="#f5f2ef"/><ellipse cx="77" cy="56.0" rx="7.5" ry="9.5" fill="#f5f2ef"/><circle cx="44" cy="58.0" r="5.0" fill="#3f2d20"/><circle cx="78" cy="58.0" r="5.0" fill="#3f2d20"/><ellipse cx="60" cy="80" rx="13.0" ry="8.5" fill="#e79aa0"/><ellipse cx="55.5" cy="80" rx="1.7" ry="2.6" fill="#966468"/><ellipse cx="64.5" cy="80" rx="1.7" ry="2.6" fill="#966468"/><clipPath id="shpig3"><ellipse cx="60" cy="64" rx="48" ry="45"/></clipPath><polygon points="74,2 124,2 124,128 12,128" fill="#000" opacity="0.10" clip-path="url(#shpig3)"/></g></svg>