<svg xmlns="http://www.w3.org/2000/svg" viewBox="0 0 120 140" width="120" height="140" role="img"><title>うさぎ はかせ ★</title><g transform="translate(0.0,10.0) scale(1.0)"><g transform="rotate(-12 42 18)"><ellipse cx="42" cy="18" rx="9.0" ry="30.0" fill="#efe9e4"/><ellipse cx="42" cy="18" rx="4.5" ry="22.5" fill="#f0c6cd"/></g><g transform="rotate(12 78 18)"><ellipse cx="78" cy="18" rx="9.0" ry="30.0" fill="#efe9e4"/><ellipse cx="78" cy="18" rx="4.5" ry="22.5" fill="#f0c6cd"/></g><ellipse cx="60" cy="66" rx="44" ry="43" fill="#efe9e4"/><ellipse cx="45" cy="58.0" rx="8.0" ry="10.0" fill="#f5f2ef"/><ellipse cx="75" cy="58.0" rx="8.0" ry="10.0" fill="#f5f2ef"/><circle cx="46" cy="60.0" r="5.0" fill="#3f2d20"/><circle cx="76" cy="60.0" r="5.0" fill="#3f2d20"/><ellipse cx="60" cy="82" rx="15.0" ry="11.0" fill="#fbf8f5"/><ellipse cx="60" cy="76" rx="4.0" ry="3.0" fill="#d98a98"/><path d="M68 79 L90 76" stroke="#cfc6bd" stroke-width="1.2" fill="none"/><path d="M68 82 L90 83" stroke="#cfc6bd" stroke-width="1.2" fill="none"/><path d="M52 79 L30 76" stroke="#cfc6bd" stroke-width="1.2" fill="none"/><path d="M52 82 L30 83" stroke="#cfc6bd" stroke-width="1.2" fill="none"/><clipPath id="shrabbit4"><ellipse cx="60" cy="66" rx="44" ry="43"/></clipPath><polygon points="74,2 124,2 124,128 12,128" fill="#000" opacity="0.10" clip-path="url(#shrabbit4)"/><circle cx="45" cy="58.0" r="12.5" stroke="#2b2b2b" stroke-width="2.4" fill="none"/><circle cx="75" cy="58.0" r="12.5" stroke="#2b2b2b" stroke-width="2.4" fill="none"/><path d="M57.5 58.0 L62.5 58.0" stroke="#2b2b2b" stroke-width="2.4" fill="none"/><polygon points="60,16 100,32 60,48 20,32" fill="#2b2b2b"/><ellipse cx="60" cy="37" rx="13" ry="6" fill="#2b2b2b"/><circle cx="60" cy="32" r="2.2" fill="#e0a93b"/><path d="M60 32 L86 36 L86 48" stroke="#e0a93b" stroke-width="2" fill="none"/><circle cx="86" cy="50" r="3" fill="#e0a93b"/><polygon points="13,58 15,63 20,65 15,67 13,72 11,67 6,65 11,63" fill="#e0a93b"/><polygon points="108,50 110,55 115,57 110,59 108,64 106,59 101,57 106,55" fill="#e0a93b"/></g></svg>