<svg xmlns="http://www.w3.org/2000/svg" viewBox="0 0 120 140" width="120" height="140" role="img"><title>うさぎ こども</title><g transform="translate(12.0,32.0) scale(0.8)"><g transform="rotate(-12 42 18)"><ellipse cx="42" cy="18" rx="7.5" ry="24.9" fill="#f2ede9"/><ellipse cx="42" cy="18" rx="3.7" ry="18.7" fill="#f3d1d7"/></g><g transform="rotate(12 78 18)"><ellipse cx="78" cy="18" rx="7.5" ry="24.9" fill="#f2ede9"/><ellipse cx="78" cy="18" rx="3.7" ry="18.7" fill="#f3d1d7"/></g><ellipse cx="60" cy="66" rx="44" ry="43" fill="#f2ede9"/><ellipse cx="45" cy="68.0" rx="9.4" ry="11.8" fill="#f5f2ef"/><ellipse cx="75" cy="68.0" rx="9.4" ry="11.8" fill="#f5f2ef"/><circle cx="46" cy="70.0" r="5.9" fill="#3f2d20"/><circle cx="76" cy="70.0" r="5.9" fill="#3f2d20"/><ellipse cx="60" cy="82" rx="11.4" ry="8.4" fill="#fbf8f5"/><ellipse cx="60" cy="76" rx="3.6" ry="2.7" fill="#d98a98"/><path d="M68 79 L90 76" stroke="#cfc6bd" stroke-width="1.2" fill="none"/><path d="M68 82 L90 83" stroke="#cfc6bd" stroke-width="1.2" fill="none"/><path d="M52 79 L30 76" stroke="#cfc6bd" stroke-width="1.2" fill="none"/><path d="M52 82 L30 83" stroke="#cfc6bd" stroke-width="1.2" fill="none"/><clipPath id="shrabbit1"><ellipse cx="60" cy="66" rx="44" ry="43"/></clipPath><polygon points="74,2 124,2 124,128 12,128" fill="#000" opacity="0.10" clip-path="url(#shrabbit1)"/></g></svg>