<svg xmlns="http://www.w3.org/2000/svg" viewBox="0 0 120 140" width="120" height="140" role="img"><title>うさぎ あかちゃん</title><g transform="translate(18.0,43.0) scale(0.7)"><g transform="rotate(-12 42 18)"><ellipse cx="42" cy="18" rx="6.3" ry="21.0" fill="#f4f0ed"/><ellipse cx="42" cy="18" rx="3.1" ry="15.8" fill="#f5d9de"/></g><g transform="rotate(12 78 18)"><ellipse cx="78" cy="18" rx="6.3" ry="21.0" fill="#f4f0ed"/><ellipse cx="78" cy="18" rx="3.1" ry="15.8" fill="#f5d9de"/></g><ellipse cx="60" cy="66" rx="44" ry="43" fill="#f4f0ed"/><ellipse cx="45" cy="74.0" rx="10.7" ry="13.4" fill="#f5f2ef"/><ellipse cx="75" cy="74.0" rx="10.7" ry="13.4" fill="#f5f2ef"/><circle cx="46" cy="76.0" r="6.7" fill="#3f2d20"/><circle cx="76" cy="76.0" r="6.7" fill="#3f2d20"/><circle cx="43" cy="72.0" r="2.6" fill="#fff"/><circle cx="73" cy="72.0" r="2.6" fill="#fff"/><ellipse cx="60" cy="82" rx="8.7" ry="6.4" fill="#fbf8f5"/><ellipse cx="60" cy="76" rx="3.2" ry="2.4" fill="#d98a98"/><path d="M68 79 L90 76" stroke="#cfc6bd" stroke-width="1.2" fill="none"/><path d="M68 82 L90 83" stroke="#cfc6bd" stroke-width="1.2" fill="none"/><path d="M52 79 L30 76" stroke="#cfc6bd" stroke-width="1.2" fill="none"/><path d="M52 82 L30 83" stroke="#cfc6bd" stroke-width="1.2" fill="none"/><clipPath id="shrabbit0"><ellipse cx="60" cy="66" rx="44" ry="43"/></clipPath><polygon points="74,2 124,2 124,128 12,128" fill="#000" opacity="0.10" clip-path="url(#shrabbit0)"/></g></svg>