<svg xmlns="http://www.w3.org/2000/svg" viewBox="0 0 120 140" width="120" height="140" role="img"><title>ひつじ おとな</title><g transform="translate(0.0,10.0) scale(1.0)"><path d="M34 60 C18 62 16 82 30 86 C38 87 38 77 33 76" stroke="#d9c7a3" stroke-width="6.0" fill="none" stroke-linecap="round"/><path d="M86 60 C102 62 104 82 90 86 C82 87 82 77 87 76" stroke="#d9c7a3" stroke-width="6.0" fill="none" stroke-linecap="round"/><circle cx="28" cy="42" r="13" fill="#f4f0ea"/><circle cx="40" cy="30" r="13" fill="#f4f0ea"/><circle cx="54" cy="26" r="13" fill="#f4f0ea"/><circle cx="68" cy="26" r="13" fill="#f4f0ea"/><circle cx="82" cy="30" r="13" fill="#f4f0ea"/><circle cx="92" cy="42" r="13" fill="#f4f0ea"/><ellipse cx="60" cy="68" rx="38" ry="40" fill="#d9cfc1"/><ellipse cx="46" cy="62.0" rx="7.0" ry="9.0" fill="#f5f2ef"/><ellipse cx="74" cy="62.0" rx="7.0" ry="9.0" fill="#f5f2ef"/><circle cx="47" cy="64.0" r="5.0" fill="#3f2d20"/><circle cx="75" cy="64.0" r="5.0" fill="#3f2d20"/><ellipse cx="60" cy="84" rx="15.0" ry="11.0" fill="#efe9e1"/><ellipse cx="60" cy="80" rx="6.5" ry="4.5" fill="#3f2d20"/><clipPath id="shsheep3"><ellipse cx="60" cy="68" rx="38" ry="40"/></clipPath><polygon points="74,2 124,2 124,128 12,128" fill="#000" opacity="0.10" clip-path="url(#shsheep3)"/></g></svg>