<svg xmlns="http://www.w3.org/2000/svg" viewBox="0 0 120 140" width="120" height="140" role="img"><title>ひつじ こども</title><g transform="translate(12.0,32.0) scale(0.8)"><path d="M34 60 C18 62 16 82 30 86 C38 87 38 77 33 76" stroke="#d9c7a3" stroke-width="4.8" fill="none" stroke-linecap="round"/><path d="M86 60 C102 62 104 82 90 86 C82 87 82 77 87 76" stroke="#d9c7a3" stroke-width="4.8" fill="none" stroke-linecap="round"/><circle cx="28" cy="42" r="13" fill="#f5f2ec"/><circle cx="40" cy="30" r="13" fill="#f5f2ec"/><circle cx="54" cy="26" r="13" fill="#f5f2ec"/><circle cx="68" cy="26" r="13" fill="#f5f2ec"/><circle cx="82" cy="30" r="13" fill="#f5f2ec"/><circle cx="92" cy="42" r="13" fill="#f5f2ec"/><ellipse cx="60" cy="68" rx="38" ry="40" fill="#e1d9cd"/><ellipse cx="46" cy="72.0" rx="8.3" ry="10.6" fill="#f5f2ef"/><ellipse cx="74" cy="72.0" rx="8.3" ry="10.6" fill="#f5f2ef"/><circle cx="47" cy="74.0" r="5.9" fill="#3f2d20"/><circle cx="75" cy="74.0" r="5.9" fill="#3f2d20"/><ellipse cx="60" cy="84" rx="11.4" ry="8.4" fill="#efe9e1"/><ellipse cx="60" cy="80" rx="5.9" ry="4.0" fill="#3f2d20"/><clipPath id="shsheep1"><ellipse cx="60" cy="68" rx="38" ry="40"/></clipPath><polygon points="74,2 124,2 124,128 12,128" fill="#000" opacity="0.10" clip-path="url(#shsheep1)"/></g></svg>