<svg xmlns="http://www.w3.org/2000/svg" viewBox="0 0 120 140" width="120" height="140" role="img"><title>ひつじ あかちゃん</title><g transform="translate(18.0,43.0) scale(0.7)"><path d="M34 60 C18 62 16 82 30 86 C38 87 38 77 33 76" stroke="#d9c7a3" stroke-width="4.8" fill="none" stroke-linecap="round"/><path d="M86 60 C102 62 104 82 90 86 C82 87 82 77 87 76" stroke="#d9c7a3" stroke-width="4.8" fill="none" stroke-linecap="round"/><circle cx="28" cy="42" r="13" fill="#f6f3ee"/><circle cx="40" cy="30" r="13" fill="#f6f3ee"/><circle cx="54" cy="26" r="13" fill="#f6f3ee"/><circle cx="68" cy="26" r="13" fill="#f6f3ee"/><circle cx="82" cy="30" r="13" fill="#f6f3ee"/><circle cx="92" cy="42" r="13" fill="#f6f3ee"/><ellipse cx="60" cy="68" rx="38" ry="40" fill="#e6dfd6"/><ellipse cx="46" cy="78.0" rx="9.4" ry="12.1" fill="#f5f2ef"/><ellipse cx="74" cy="78.0" rx="9.4" ry="12.1" fill="#f5f2ef"/><circle cx="47" cy="80.0" r="6.7" fill="#3f2d20"/><circle cx="75" cy="80.0" r="6.7" fill="#3f2d20"/><circle cx="44" cy="76.0" r="2.3" fill="#fff"/><circle cx="72" cy="76.0" r="2.3" fill="#fff"/><ellipse cx="60" cy="84" rx="8.7" ry="6.4" fill="#efe9e1"/><ellipse cx="60" cy="80" rx="5.2" ry="3.6" fill="#3f2d20"/><clipPath id="shsheep0"><ellipse cx="60" cy="68" rx="38" ry="40"/></clipPath><polygon points="74,2 124,2 124,128 12,128" fill="#000" opacity="0.10" clip-path="url(#shsheep0)"/></g></svg>