<svg xmlns="http://www.w3.org/2000/svg" viewBox="0 0 120 140" width="120" height="140" role="img"><title>ひつじ はかせ ★</title><g transform="translate(0.0,10.0) scale(1.0)"><path d="M34 60 C18 62 16 82 30 86 C38 87 38 77 33 76" stroke="#d9c7a3" stroke-width="6.0" fill="none" stroke-linecap="round"/><path d="M86 60 C102 62 104 82 90 86 C82 87 82 77 87 76" stroke="#d9c7a3" stroke-width="6.0" fill="none" stroke-linecap="round"/><circle cx="28" cy="42" r="13" fill="#f4f0ea"/><circle cx="40" cy="30" r="13" fill="#f4f0ea"/><circle cx="54" cy="26" r="13" fill="#f4f0ea"/><circle cx="68" cy="26" r="13" fill="#f4f0ea"/><circle cx="82" cy="30" r="13" fill="#f4f0ea"/><circle cx="92" cy="42" r="13" fill="#f4f0ea"/><ellipse cx="60" cy="68" rx="38" ry="40" fill="#d9cfc1"/><ellipse cx="46" cy="62.0" rx="7.0" ry="9.0" fill="#f5f2ef"/><ellipse cx="74" cy="62.0" rx="7.0" ry="9.0" fill="#f5f2ef"/><circle cx="47" cy="64.0" r="5.0" fill="#3f2d20"/><circle cx="75" cy="64.0" r="5.0" fill="#3f2d20"/><ellipse cx="60" cy="84" rx="15.0" ry="11.0" fill="#efe9e1"/><ellipse cx="60" cy="80" rx="6.5" ry="4.5" fill="#3f2d20"/><clipPath id="shsheep4"><ellipse cx="60" cy="68" rx="38" ry="40"/></clipPath><polygon points="74,2 124,2 124,128 12,128" fill="#000" opacity="0.10" clip-path="url(#shsheep4)"/><circle cx="46" cy="62.0" r="11.5" stroke="#2b2b2b" stroke-width="2.4" fill="none"/><circle cx="74" cy="62.0" r="11.5" stroke="#2b2b2b" stroke-width="2.4" fill="none"/><path d="M57.5 62.0 L62.5 62.0" stroke="#2b2b2b" stroke-width="2.4" fill="none"/><polygon points="60,21 100,37 60,53 20,37" fill="#2b2b2b"/><ellipse cx="60" cy="42" rx="13" ry="6" fill="#2b2b2b"/><circle cx="60" cy="37" r="2.2" fill="#e0a93b"/><path d="M60 37 L86 41 L86 53" stroke="#e0a93b" stroke-width="2" fill="none"/><circle cx="86" cy="55" r="3" fill="#e0a93b"/><polygon points="13,62 15,67 20,69 15,71 13,76 11,71 6,69 11,67" fill="#e0a93b"/><polygon points="108,54 110,59 115,61 110,63 108,68 106,63 101,61 106,59" fill="#e0a93b"/></g></svg>