<svg xmlns="http://www.w3.org/2000/svg" viewBox="0 0 120 140" width="120" height="140" role="img"><title>りす あかちゃん</title><g transform="translate(18.0,43.0) scale(0.7)"><ellipse cx="60" cy="64" rx="46" ry="44" fill="#dbb088"/><polygon points="25.0,30 32.0,4 39.0,30" fill="#dbb088"/><polygon points="81.0,30 88.0,4 95.0,30" fill="#dbb088"/><polygon points="28.1,28 32.0,12 35.9,28" fill="#f0dbc0"/><polygon points="84.1,28 88.0,12 91.9,28" fill="#f0dbc0"/><ellipse cx="45" cy="73.0" rx="10.7" ry="13.4" fill="#f5f2ef"/><ellipse cx="75" cy="73.0" rx="10.7" ry="13.4" fill="#f5f2ef"/><circle cx="46" cy="75.0" r="6.7" fill="#3f2d20"/><circle cx="76" cy="75.0" r="6.7" fill="#3f2d20"/><circle cx="43" cy="71.0" r="2.6" fill="#fff"/><circle cx="73" cy="71.0" r="2.6" fill="#fff"/><ellipse cx="60" cy="82" rx="8.7" ry="7.0" fill="#f0e6d6"/><path d="M56.6 74 L63.4 74 Q60 80 60 80 Z" fill="#e0899a"/><rect x="57.5" y="80" width="2.4" height="5" rx="0.6" fill="#fff"/><rect x="60.1" y="80" width="2.4" height="5" rx="0.6" fill="#fff"/><clipPath id="shsquirrel0"><ellipse cx="60" cy="64" rx="46" ry="44"/></clipPath><polygon points="74,2 124,2 124,128 12,128" fill="#000" opacity="0.10" clip-path="url(#shsquirrel0)"/></g></svg>