<svg xmlns="http://www.w3.org/2000/svg" viewBox="0 0 120 140" width="120" height="140" role="img"><title>りす わかもの</title><g transform="translate(6.0,21.0) scale(0.9)"><ellipse cx="60" cy="64" rx="46" ry="44" fill="#cd935a"/><polygon points="22.7,30 32.0,4 41.3,30" fill="#cd935a"/><polygon points="78.7,30 88.0,4 97.3,30" fill="#cd935a"/><polygon points="26.8,28 32.0,12 37.2,28" fill="#eacea9"/><polygon points="82.8,28 88.0,12 93.2,28" fill="#eacea9"/><ellipse cx="45" cy="62.0" rx="8.6" ry="10.8" fill="#f5f2ef"/><ellipse cx="75" cy="62.0" rx="8.6" ry="10.8" fill="#f5f2ef"/><circle cx="46" cy="64.0" r="5.4" fill="#3f2d20"/><circle cx="76" cy="64.0" r="5.4" fill="#3f2d20"/><ellipse cx="60" cy="82" rx="13.2" ry="10.6" fill="#f0e6d6"/><path d="M56.0 74 L64.0 74 Q60 80 60 80 Z" fill="#e0899a"/><rect x="57.5" y="80" width="2.4" height="5" rx="0.6" fill="#fff"/><rect x="60.1" y="80" width="2.4" height="5" rx="0.6" fill="#fff"/><clipPath id="shsquirrel2"><ellipse cx="60" cy="64" rx="46" ry="44"/></clipPath><polygon points="74,2 124,2 124,128 12,128" fill="#000" opacity="0.10" clip-path="url(#shsquirrel2)"/></g></svg>