<svg xmlns="http://www.w3.org/2000/svg" viewBox="0 0 120 140" width="120" height="140" role="img"><title>りす おとな</title><g transform="translate(0.0,10.0) scale(1.0)"><ellipse cx="60" cy="64" rx="46" ry="44" fill="#c8884a"/><polygon points="22.0,30 32.0,4 42.0,30" fill="#c8884a"/><polygon points="78.0,30 88.0,4 98.0,30" fill="#c8884a"/><polygon points="26.4,28 32.0,12 37.6,28" fill="#e8c9a0"/><polygon points="82.4,28 88.0,12 93.6,28" fill="#e8c9a0"/><ellipse cx="45" cy="57.0" rx="8.0" ry="10.0" fill="#f5f2ef"/><ellipse cx="75" cy="57.0" rx="8.0" ry="10.0" fill="#f5f2ef"/><circle cx="46" cy="59.0" r="5.0" fill="#3f2d20"/><circle cx="76" cy="59.0" r="5.0" fill="#3f2d20"/><ellipse cx="60" cy="82" rx="15.0" ry="12.0" fill="#f0e6d6"/><path d="M55.8 74 L64.2 74 Q60 80 60 80 Z" fill="#e0899a"/><rect x="57.5" y="80" width="2.4" height="5" rx="0.6" fill="#fff"/><rect x="60.1" y="80" width="2.4" height="5" rx="0.6" fill="#fff"/><clipPath id="shsquirrel3"><ellipse cx="60" cy="64" rx="46" ry="44"/></clipPath><polygon points="74,2 124,2 124,128 12,128" fill="#000" opacity="0.10" clip-path="url(#shsquirrel3)"/></g></svg>