<svg xmlns="http://www.w3.org/2000/svg" viewBox="0 0 120 140" width="120" height="140" role="img"><title>りす はかせ ★</title><g transform="translate(0.0,10.0) scale(1.0)"><ellipse cx="60" cy="64" rx="46" ry="44" fill="#c8884a"/><polygon points="22.0,30 32.0,4 42.0,30" fill="#c8884a"/><polygon points="78.0,30 88.0,4 98.0,30" fill="#c8884a"/><polygon points="26.4,28 32.0,12 37.6,28" fill="#e8c9a0"/><polygon points="82.4,28 88.0,12 93.6,28" fill="#e8c9a0"/><ellipse cx="45" cy="57.0" rx="8.0" ry="10.0" fill="#f5f2ef"/><ellipse cx="75" cy="57.0" rx="8.0" ry="10.0" fill="#f5f2ef"/><circle cx="46" cy="59.0" r="5.0" fill="#3f2d20"/><circle cx="76" cy="59.0" r="5.0" fill="#3f2d20"/><ellipse cx="60" cy="82" rx="15.0" ry="12.0" fill="#f0e6d6"/><path d="M55.8 74 L64.2 74 Q60 80 60 80 Z" fill="#e0899a"/><rect x="57.5" y="80" width="2.4" height="5" rx="0.6" fill="#fff"/><rect x="60.1" y="80" width="2.4" height="5" rx="0.6" fill="#fff"/><clipPath id="shsquirrel4"><ellipse cx="60" cy="64" rx="46" ry="44"/></clipPath><polygon points="74,2 124,2 124,128 12,128" fill="#000" opacity="0.10" clip-path="url(#shsquirrel4)"/><circle cx="45" cy="57.0" r="12.5" stroke="#2b2b2b" stroke-width="2.4" fill="none"/><circle cx="75" cy="57.0" r="12.5" stroke="#2b2b2b" stroke-width="2.4" fill="none"/><path d="M57.5 57.0 L62.5 57.0" stroke="#2b2b2b" stroke-width="2.4" fill="none"/><polygon points="60,13 100,29 60,45 20,29" fill="#2b2b2b"/><ellipse cx="60" cy="34" rx="13" ry="6" fill="#2b2b2b"/><circle cx="60" cy="29" r="2.2" fill="#e0a93b"/><path d="M60 29 L86 33 L86 45" stroke="#e0a93b" stroke-width="2" fill="none"/><circle cx="86" cy="47" r="3" fill="#e0a93b"/><polygon points="13,57 15,62 20,64 15,66 13,71 11,66 6,64 11,62" fill="#e0a93b"/><polygon points="108,49 110,54 115,56 110,58 108,63 106,58 101,56 106,54" fill="#e0a93b"/></g></svg>