<svg xmlns="http://www.w3.org/2000/svg" viewBox="0 0 120 140" width="120" height="140" role="img"><title>りす こども</title><g transform="translate(12.0,32.0) scale(0.8)"><ellipse cx="60" cy="64" rx="46" ry="44" fill="#d3a06e"/><polygon points="23.7,30 32.0,4 40.3,30" fill="#d3a06e"/><polygon points="79.7,30 88.0,4 96.3,30" fill="#d3a06e"/><polygon points="27.4,28 32.0,12 36.6,28" fill="#edd4b3"/><polygon points="83.4,28 88.0,12 92.6,28" fill="#edd4b3"/><ellipse cx="45" cy="67.0" rx="9.4" ry="11.8" fill="#f5f2ef"/><ellipse cx="75" cy="67.0" rx="9.4" ry="11.8" fill="#f5f2ef"/><circle cx="46" cy="69.0" r="5.9" fill="#3f2d20"/><circle cx="76" cy="69.0" r="5.9" fill="#3f2d20"/><ellipse cx="60" cy="82" rx="11.4" ry="9.1" fill="#f0e6d6"/><path d="M56.2 74 L63.8 74 Q60 80 60 80 Z" fill="#e0899a"/><rect x="57.5" y="80" width="2.4" height="5" rx="0.6" fill="#fff"/><rect x="60.1" y="80" width="2.4" height="5" rx="0.6" fill="#fff"/><clipPath id="shsquirrel1"><ellipse cx="60" cy="64" rx="46" ry="44"/></clipPath><polygon points="74,2 124,2 124,128 12,128" fill="#000" opacity="0.10" clip-path="url(#shsquirrel1)"/></g></svg>