<svg xmlns="http://www.w3.org/2000/svg" viewBox="0 0 120 140" width="120" height="140" role="img"><title>とら はかせ ★</title><g transform="translate(0.0,10.0) scale(1.0)"><ellipse cx="60" cy="64" rx="50" ry="46" fill="#e8943c"/><circle cx="26" cy="28" r="16.0" fill="#e8943c"/><circle cx="94" cy="28" r="16.0" fill="#e8943c"/><circle cx="26" cy="28" r="8.0" fill="#3a2a1c"/><circle cx="94" cy="28" r="8.0" fill="#3a2a1c"/><ellipse cx="44" cy="56.0" rx="8.0" ry="10.5" fill="#f5f2ef"/><ellipse cx="76" cy="56.0" rx="8.0" ry="10.5" fill="#f5f2ef"/><circle cx="45" cy="58.0" r="5.0" fill="#3f2d20"/><circle cx="77" cy="58.0" r="5.0" fill="#3f2d20"/><ellipse cx="60" cy="84" rx="20.0" ry="14.0" fill="#f6efe5"/><ellipse cx="60" cy="78" rx="6.5" ry="4.5" fill="#9a5a4a"/><path d="M60 83 L60 89" stroke="#3f2d20" stroke-width="2" fill="none" stroke-linecap="round"/><path d="M49 92 Q60 99 71 92" stroke="#3f2d20" stroke-width="2" fill="none" stroke-linecap="round"/><path d="M60 34 L60 44" stroke="#3a2a1c" stroke-width="2.6" fill="none" stroke-linecap="round"/><path d="M52 35 L50 44" stroke="#3a2a1c" stroke-width="2.2" fill="none" stroke-linecap="round"/><path d="M68 35 L70 44" stroke="#3a2a1c" stroke-width="2.2" fill="none" stroke-linecap="round"/><path d="M22 58 L33 60" stroke="#3a2a1c" stroke-width="2.4" fill="none" stroke-linecap="round"/><path d="M21 70 L32 70" stroke="#3a2a1c" stroke-width="2.4" fill="none" stroke-linecap="round"/><path d="M98 58 L87 60" stroke="#3a2a1c" stroke-width="2.4" fill="none" stroke-linecap="round"/><path d="M99 70 L88 70" stroke="#3a2a1c" stroke-width="2.4" fill="none" stroke-linecap="round"/><clipPath id="shtiger4"><ellipse cx="60" cy="64" rx="50" ry="46"/></clipPath><polygon points="74,2 124,2 124,128 12,128" fill="#000" opacity="0.10" clip-path="url(#shtiger4)"/><circle cx="44" cy="56.0" r="12.5" stroke="#2b2b2b" stroke-width="2.4" fill="none"/><circle cx="76" cy="56.0" r="12.5" stroke="#2b2b2b" stroke-width="2.4" fill="none"/><path d="M56.5 56.0 L63.5 56.0" stroke="#2b2b2b" stroke-width="2.4" fill="none"/><polygon points="60,11 100,27 60,43 20,27" fill="#2b2b2b"/><ellipse cx="60" cy="32" rx="13" ry="6" fill="#2b2b2b"/><circle cx="60" cy="27" r="2.2" fill="#e0a93b"/><path d="M60 27 L86 31 L86 43" stroke="#e0a93b" stroke-width="2" fill="none"/><circle cx="86" cy="45" r="3" fill="#e0a93b"/><polygon points="13,56 15,61 20,63 15,65 13,70 11,65 6,63 11,61" fill="#e0a93b"/><polygon points="108,48 110,53 115,55 110,57 108,62 106,57 101,55 106,53" fill="#e0a93b"/></g></svg>