<svg xmlns="http://www.w3.org/2000/svg" viewBox="0 0 120 140" width="120" height="140" role="img"><title>とら こども</title><g transform="translate(12.0,32.0) scale(0.8)"><ellipse cx="60" cy="64" rx="50" ry="46" fill="#eda963"/><circle cx="26" cy="28" r="13.3" fill="#eda963"/><circle cx="94" cy="28" r="13.3" fill="#eda963"/><circle cx="26" cy="28" r="6.6" fill="#615549"/><circle cx="94" cy="28" r="6.6" fill="#615549"/><ellipse cx="44" cy="66.0" rx="9.4" ry="12.4" fill="#f5f2ef"/><ellipse cx="76" cy="66.0" rx="9.4" ry="12.4" fill="#f5f2ef"/><circle cx="45" cy="68.0" r="5.9" fill="#3f2d20"/><circle cx="77" cy="68.0" r="5.9" fill="#3f2d20"/><ellipse cx="60" cy="84" rx="15.2" ry="10.6" fill="#f6efe5"/><ellipse cx="60" cy="78" rx="5.9" ry="4.0" fill="#9a5a4a"/><path d="M60 83 L60 89" stroke="#3f2d20" stroke-width="2" fill="none" stroke-linecap="round"/><path d="M49 92 Q60 99 71 92" stroke="#3f2d20" stroke-width="2" fill="none" stroke-linecap="round"/><path d="M60 34 L60 44" stroke="#3a2a1c" stroke-width="2.6" fill="none" stroke-linecap="round"/><path d="M52 35 L50 44" stroke="#3a2a1c" stroke-width="2.2" fill="none" stroke-linecap="round"/><path d="M68 35 L70 44" stroke="#3a2a1c" stroke-width="2.2" fill="none" stroke-linecap="round"/><path d="M22 58 L33 60" stroke="#3a2a1c" stroke-width="2.4" fill="none" stroke-linecap="round"/><path d="M21 70 L32 70" stroke="#3a2a1c" stroke-width="2.4" fill="none" stroke-linecap="round"/><path d="M98 58 L87 60" stroke="#3a2a1c" stroke-width="2.4" fill="none" stroke-linecap="round"/><path d="M99 70 L88 70" stroke="#3a2a1c" stroke-width="2.4" fill="none" stroke-linecap="round"/><clipPath id="shtiger1"><ellipse cx="60" cy="64" rx="50" ry="46"/></clipPath><polygon points="74,2 124,2 124,128 12,128" fill="#000" opacity="0.10" clip-path="url(#shtiger1)"/></g></svg>